<svg width="50" height="50" viewBox="0 0 50 50" fill="none" xmlns="http://www.w3.org/2000/svg">
<path fill-rule="evenodd" clip-rule="evenodd" d="M3.54374 28.5514H20.6667C21.3884 28.5513 22.0805 28.2648 22.591 27.7547C23.1015 27.2447 23.3887 26.5528 23.3894 25.8312V3.54431C23.3888 2.82226 23.1018 2.12994 22.5914 1.61925C22.081 1.10857 21.3888 0.821238 20.6667 0.820313L3.54374 0.820313C2.8216 0.821163 2.1293 1.10845 1.61872 1.61912C1.10815 2.1298 0.821012 2.82217 0.820312 3.54431L0.820313 25.8312C0.821189 26.5529 1.10849 27.2448 1.61911 27.7548C2.12974 28.2648 2.82202 28.5513 3.54374 28.5514ZM46.9374 0.820313H28.8474C28.253 0.821112 27.6832 1.05761 27.263 1.47795C26.8427 1.89828 26.6064 2.46813 26.6057 3.06251V15.9893C26.606 16.5843 26.842 17.1549 27.2621 17.5762C27.6822 17.9976 28.2521 18.2352 28.8471 18.2372H46.9374C47.5325 18.2354 48.1026 17.9978 48.5229 17.5765C48.9432 17.1551 49.1794 16.5844 49.1797 15.9893V3.06251C49.1789 2.46805 48.9425 1.89816 48.5221 1.47783C48.1017 1.0575 47.5319 0.821037 46.9374 0.820313ZM46.4557 21.4486H29.3333C28.6115 21.4488 27.9193 21.7353 27.4086 22.2453C26.8979 22.7553 26.6104 23.4471 26.6093 24.1688V46.4595C26.6104 47.1812 26.8979 47.873 27.4086 48.383C27.9193 48.893 28.6115 49.1795 29.3333 49.1797H46.4556C47.1774 49.1797 47.8697 48.8932 48.3805 48.3832C48.8912 47.8732 49.1787 47.1813 49.1797 46.4595V24.1688C49.1787 23.447 48.8912 22.7552 48.3805 22.2451C47.8698 21.7351 47.1775 21.4486 46.4557 21.4486ZM21.152 31.7628H3.06194C2.46693 31.7647 1.89693 32.0024 1.47679 32.4237C1.05664 32.845 0.820584 33.4157 0.820312 34.0107L0.820313 46.9412C0.821013 47.5352 1.05751 48.1046 1.47783 48.5244C1.89816 48.9441 2.46792 49.1798 3.06194 49.1797H21.1519C21.7461 49.1801 22.3161 48.9445 22.7366 48.5247C23.1571 48.1049 23.3937 47.5353 23.3943 46.9412V34.0107C23.3941 33.4155 23.158 32.8447 22.7377 32.4234C22.3173 32.002 21.7472 31.7644 21.152 31.7628Z" fill="#0F72F3"/>
</svg>
