<svg width="50" height="50" viewBox="0 0 50 50" fill="none" xmlns="http://www.w3.org/2000/svg">
<path d="M27.6611 13.7281L24.9995 12.3297L22.338 13.728C21.8641 13.976 21.2882 13.936 20.8529 13.6205C20.4176 13.305 20.1999 12.7705 20.2908 12.2415L20.8005 9.27823L18.6487 7.18008C18.2629 6.8054 18.1252 6.2447 18.2904 5.73497C18.4558 5.22384 18.8994 4.85189 19.4284 4.77477L22.4041 4.34216L23.7348 1.64757C24.2087 0.683231 25.7902 0.683231 26.2642 1.64757L27.5949 4.34216L30.5706 4.77477C31.0996 4.85189 31.5432 5.22384 31.7086 5.73497C31.8739 6.2447 31.7361 6.8054 31.3503 7.18008L29.1985 9.27823L29.7082 12.2415C29.7992 12.7705 29.5814 13.3051 29.1461 13.6205C28.7268 13.9269 28.1517 13.9864 27.6611 13.7281Z" fill="#0F72F3"/>
<path d="M10.7334 25.2649L8.07181 23.8666L5.41023 25.2649C4.93633 25.5129 4.36049 25.4756 3.92516 25.1574C3.48982 24.8419 3.2722 24.3074 3.36305 23.7784L3.87277 20.8151L1.72092 18.7169C1.33515 18.3423 1.19746 17.7816 1.3627 17.2718C1.52803 16.7607 1.97165 16.3888 2.50065 16.3116L5.47634 15.879L6.80709 13.1844C7.28098 12.2201 8.86245 12.2201 9.33644 13.1844L10.6672 15.879L13.6429 16.3116C14.1719 16.3888 14.6155 16.7607 14.7808 17.2718C14.9462 17.7816 14.8084 18.3423 14.4226 18.7169L12.2707 20.8151L12.7805 23.7784C12.8714 24.3074 12.6537 24.8419 12.2184 25.1574C11.7991 25.4638 11.2239 25.5233 10.7334 25.2649Z" fill="#0F72F3"/>
<path d="M44.5889 25.2653L41.9273 23.8671L39.2657 25.2653C38.7918 25.5133 38.216 25.4761 37.7806 25.1578C37.3453 24.8424 37.1277 24.3079 37.2185 23.7789L37.7282 20.8156L35.5764 18.7174C35.1906 18.3428 35.0529 17.7821 35.2182 17.2723C35.3835 16.7612 35.8271 16.3892 36.3561 16.3121L39.3318 15.8795L40.6626 13.1849C41.1364 12.2206 42.7179 12.2206 43.1919 13.1849L44.5226 15.8795L47.4983 16.3121C48.0273 16.3892 48.471 16.7612 48.6363 17.2723C48.8016 17.7821 48.6638 18.3428 48.2781 18.7174L46.1262 20.8156L46.6359 23.7789C46.7269 24.3079 46.5092 24.8424 46.0738 25.1578C45.6546 25.4642 45.0794 25.5238 44.5889 25.2653Z" fill="#0F72F3"/>
<path d="M24.999 49.0756C24.2744 49.0756 23.6683 48.5273 23.5966 47.8054C20.5789 17.7136 20.767 19.8351 20.767 19.4513C20.767 17.1176 22.6654 15.2192 24.999 15.2192C27.3326 15.2192 29.231 17.1176 29.231 19.4513C29.231 19.7903 29.3772 18.1318 26.4014 47.8054C26.3297 48.5273 25.7236 49.0756 24.999 49.0756Z" fill="#0F72F3"/>
<path d="M18.1063 48.3167L9.95904 32.6903C9.64775 32.0869 9.48242 31.4133 9.48242 30.7369C9.48242 28.4033 11.3808 26.5049 13.7145 26.5049C15.8002 26.5049 17.5553 27.9955 17.8887 30.0495L20.7486 47.4364C20.8615 48.1197 20.462 48.7837 19.8035 49.0027C19.1397 49.2241 18.4225 48.9263 18.1063 48.3167Z" fill="#0F72F3"/>
<path d="M30.1965 49.0026C29.538 48.7835 29.1385 48.1195 29.2514 47.4362L32.1114 30.0466C32.4448 27.9953 34.1998 26.5046 36.2856 26.5046C38.6192 26.5046 40.5176 28.403 40.5176 30.7367C40.5176 31.4131 40.3523 32.0867 40.0437 32.6874L31.8937 48.3165C31.5787 48.9222 30.8639 49.225 30.1965 49.0026Z" fill="#0F72F3"/>
<path d="M12.7167 48.6621L5.66326 41.6087C5.11225 41.0577 5.11225 40.165 5.66326 39.6139C6.21427 39.0629 7.10704 39.0629 7.65806 39.6139L14.7115 46.6673C15.2625 47.2184 15.2625 48.1111 14.7115 48.6621C14.1604 49.2133 13.2677 49.2133 12.7167 48.6621Z" fill="#0F72F3"/>
<path d="M2.33451 37.6961C3.11361 37.6961 3.74519 37.0645 3.74519 36.2854C3.74519 35.5063 3.11361 34.8748 2.33451 34.8748C1.55541 34.8748 0.923828 35.5063 0.923828 36.2854C0.923828 37.0645 1.55541 37.6961 2.33451 37.6961Z" fill="#0F72F3"/>
<path d="M35.2873 48.6621C34.7363 48.1111 34.7363 47.2184 35.2873 46.6673L42.3407 39.6139C42.8917 39.0629 43.7845 39.0629 44.3355 39.6139C44.8865 40.165 44.8865 41.0577 44.3355 41.6087L37.2821 48.6621C36.731 49.2133 35.8383 49.2133 35.2873 48.6621Z" fill="#0F72F3"/>
<path d="M47.6646 37.6959C48.4437 37.6959 49.0753 37.0643 49.0753 36.2852C49.0753 35.5061 48.4437 34.8745 47.6646 34.8745C46.8855 34.8745 46.2539 35.5061 46.2539 36.2852C46.2539 37.0643 46.8855 37.6959 47.6646 37.6959Z" fill="#0F72F3"/>
</svg>
