<svg width="50" height="50" viewBox="0 0 50 50" fill="none" xmlns="http://www.w3.org/2000/svg">
<path d="M40.469 9.51636C35.7389 9.51636 31.8334 13.1131 31.3428 17.7151C34.7758 19.8449 37.0671 23.6477 37.0671 27.9763V34.1639C37.0671 36.4211 36.05 38.496 34.3841 39.8784V48.1885C34.3841 48.9861 35.0307 49.6327 35.8283 49.6327H45.1096C45.9072 49.6327 46.5538 48.9861 46.5538 48.1885V33.8256C48.3503 33.221 49.6476 31.5208 49.6476 29.5232V18.6949C49.6476 13.6339 45.53 9.51636 40.469 9.51636Z" fill="#0F72F3"/>
<path d="M40.4692 9.51637C42.9997 9.51637 45.0586 7.45764 45.0586 4.92704C44.8279 -1.15299 36.1097 -1.15126 35.8799 4.92713C35.8799 7.45764 37.9386 9.51637 40.4692 9.51637Z" fill="#0F72F3"/>
<path d="M29.5901 14.2082C29.5901 11.6776 27.5314 9.6189 25.0008 9.6189C18.9208 9.84958 18.9224 18.5678 25.0009 18.7976C27.5313 18.7976 29.5901 16.7388 29.5901 14.2082Z" fill="#0F72F3"/>
<path d="M25.0002 18.7976C20.2701 18.7976 16.3647 22.3943 15.874 26.9964C19.307 29.1261 21.5984 32.929 21.5984 37.2576V38.8044C21.5984 41.0615 20.5812 43.1365 18.9154 44.5189V48.1885C18.9154 48.986 19.562 49.6326 20.3596 49.6326H29.6409C30.4385 49.6326 31.0851 48.986 31.0851 48.1885V38.4662C32.8815 37.8616 34.1788 36.1615 34.1788 34.1638V27.9762C34.1788 22.9151 30.0613 18.7976 25.0002 18.7976Z" fill="#0F72F3"/>
<path d="M9.53112 28.0791C4.45278 28.0791 0.352539 32.1895 0.352539 37.2577V38.8045C0.352539 40.8022 1.6498 42.5024 3.44628 43.1069V48.1885C3.44628 48.9861 4.09289 49.6327 4.89046 49.6327H14.1718C14.9694 49.6327 15.616 48.9861 15.616 48.1885V43.1069C17.4124 42.5024 18.7097 40.8022 18.7097 38.8045V37.2577C18.7098 32.1801 14.6004 28.0791 9.53112 28.0791Z" fill="#0F72F3"/>
<path d="M9.53074 28.0791C12.0612 28.0791 14.1201 26.0204 14.1201 23.4898C13.8894 17.4098 5.17122 17.4115 4.94141 23.4899C4.9415 26.0204 7.00024 28.0791 9.53074 28.0791Z" fill="#0F72F3"/>
</svg>
