<svg width="48" height="48" viewBox="0 0 48 48" fill="none" xmlns="http://www.w3.org/2000/svg">
<path d="M38.4266 22.7323L44.9655 16.2002C46.7125 14.455 47.6745 12.1344 47.6745 9.66636C47.6745 7.19797 46.7125 4.87733 44.9655 3.13215H44.9651C41.3599 -0.469831 35.4933 -0.469831 31.8877 3.13215C30.1407 4.87733 29.1787 7.19797 29.1787 9.66636C29.1787 12.1344 30.1407 14.455 31.8877 16.2002L38.4266 22.7323ZM38.4266 8.10217C39.1928 8.10217 39.8138 8.72315 39.8138 9.48935C39.8138 10.2552 39.1928 10.8765 38.4266 10.8765C37.6604 10.8765 37.0394 10.2552 37.0394 9.48935C37.0394 8.72315 37.6604 8.10217 38.4266 8.10217Z" fill="#0F72F3"/>
<path d="M40.3689 33.0714H28.9015C26.4027 33.0714 24.37 31.0387 24.37 28.54C24.37 26.0412 26.4027 24.0085 28.9015 24.0085H35.7785L33.0012 21.2341H28.9015C24.8729 21.2341 21.5956 24.5114 21.5956 28.54C21.5956 32.5682 24.8729 35.8458 28.9015 35.8458H40.3689C42.8676 35.8458 44.9003 37.8785 44.9003 40.3773V40.4697C44.9003 42.9685 42.8676 45.0012 40.3689 45.0012H14.9989L12.2217 47.7756H40.3689C44.3975 47.7756 47.6747 44.498 47.6747 40.4697V40.3773C47.6747 36.3486 44.3975 33.0714 40.3689 33.0714Z" fill="#0F72F3"/>
<path d="M18.821 33.4334C18.821 30.9651 17.859 28.6444 16.112 26.8992H16.1116C12.5064 23.2973 6.63977 23.2973 3.03418 26.8992C1.28719 28.6444 0.325195 30.9651 0.325195 33.4334C0.325195 35.9015 1.28719 38.2221 3.03418 39.9673L9.57308 46.4993L16.112 39.9673C17.859 38.2221 18.821 35.9015 18.821 33.4334ZM9.57308 34.6436C8.80688 34.6436 8.1859 34.0223 8.1859 33.2564C8.1859 32.4902 8.80688 31.8693 9.57308 31.8693C10.3393 31.8693 10.9603 32.4902 10.9603 33.2564C10.9603 34.0223 10.3393 34.6436 9.57308 34.6436Z" fill="#0F72F3"/>
</svg>
