<svg width="48" height="48" viewBox="0 0 48 48" fill="none" xmlns="http://www.w3.org/2000/svg">
<path d="M15.7782 34.373L19.2122 30.939C18.8275 30.6116 18.4461 30.2808 18.0833 29.918C17.7205 29.5552 17.3914 29.1738 17.064 28.7908L13.6317 32.2231C11.6775 31.1904 9.20873 31.4722 7.56342 33.1175L1.93223 38.7487C-0.0893906 40.7703 -0.0893906 44.0458 1.93223 46.0674C3.95386 48.089 7.2293 48.089 9.25092 46.0674L14.8804 40.4379C16.5257 38.7926 16.8075 36.3271 15.7782 34.373Z" fill="#0F72F3"/>
<path d="M42.8898 5.11017C36.6325 -1.14708 26.4873 -1.14708 20.23 5.11017C13.9728 11.3674 13.9728 21.5127 20.23 27.7699C26.4873 34.0272 36.6325 34.0272 42.8898 27.7699C49.147 21.5127 49.147 11.3674 42.8898 5.11017ZM41.7592 16.2662C41.6765 16.2797 41.5955 16.2848 41.5162 16.2848C40.7821 16.2848 40.1392 15.7532 40.0177 15.0074C39.7359 13.2439 38.9124 11.6374 37.6383 10.3634C36.3642 9.0893 34.7594 8.26749 32.996 7.98567C32.1674 7.85405 31.6038 7.07442 31.7354 6.24586C31.867 5.41899 32.6416 4.84861 33.4735 4.9853C35.8749 5.36836 38.0568 6.48549 39.7865 8.21517C41.5145 9.94317 42.6333 12.1251 43.0164 14.5247C43.153 15.3533 42.5877 16.1329 41.7592 16.2662Z" fill="#0F72F3"/>
</svg>
