<svg width="314" height="231" viewBox="0 0 314 231" fill="none" xmlns="http://www.w3.org/2000/svg">
<g opacity="0.7">
<path d="M70.3226 63.78L12.0723 102.746L69.4486 188.519L127.699 149.553L70.3226 63.78Z" fill="#F5F5F5"/>
<path d="M97.5986 145.494L96.9393 149.585L67.9805 145.411L68.6398 141.32L97.5986 145.494Z" fill="#E0E0E0"/>
<path d="M83.0145 130.9L87.1677 131.497L82.5628 160.01L78.4043 159.408L83.0145 130.9Z" fill="#E0E0E0"/>
<path d="M56.3656 94.6648C56.4072 94.7219 50.5718 98.7039 43.3295 103.543C36.0872 108.381 30.1843 112.265 30.1428 112.202C30.1013 112.14 35.9366 108.163 43.1789 103.319C50.4213 98.4755 56.2982 94.6025 56.3656 94.6648Z" fill="#E0E0E0"/>
<path d="M77.7662 89.2856C77.8077 89.3479 68.0994 95.9102 56.086 103.947C44.0726 111.984 34.2812 118.447 34.2501 118.39C34.2189 118.333 43.9065 111.76 55.9355 103.724C67.9644 95.6869 77.7247 89.2233 77.7662 89.2856Z" fill="#E0E0E0"/>
<path d="M82.0592 95.7016C82.1007 95.7639 72.3924 102.331 60.379 110.368C48.3656 118.405 38.5742 124.868 38.543 124.806C38.5119 124.744 48.2098 118.181 60.2284 110.14C72.247 102.098 82.0176 95.6393 82.0592 95.7016Z" fill="#E0E0E0"/>
<path d="M86.3541 102.123C86.3956 102.186 76.6873 108.753 64.6739 116.785C52.6605 124.816 42.8691 131.29 42.8691 131.228C42.8691 131.166 52.5307 124.598 64.5493 116.561C76.5679 108.525 86.3126 102.061 86.3541 102.123Z" fill="#E0E0E0"/>
<path d="M90.6301 108.545C90.6717 108.608 80.9633 115.17 68.9499 123.207C56.9365 131.243 47.1452 137.707 47.1192 137.645C47.0932 137.582 56.7964 131.02 68.8253 122.983C80.8543 114.947 90.6301 108.483 90.6301 108.545Z" fill="#E0E0E0"/>
<path d="M265.105 121.251L216.184 153.977L264.369 226.01L313.29 193.285L265.105 121.251Z" fill="#F5F5F5"/>
<path d="M288.015 189.893L287.459 193.33L263.137 189.826L263.697 186.389L288.015 189.893Z" fill="#E0E0E0"/>
<path d="M275.771 177.637L279.26 178.14L275.392 202.084L271.898 201.581L275.771 177.637Z" fill="#E0E0E0"/>
<path d="M253.366 147.228C253.408 147.291 248.512 150.639 242.427 154.704C236.343 158.769 231.38 162.019 231.338 161.973C231.297 161.926 236.197 158.567 242.277 154.497C248.356 150.426 253.325 147.14 253.366 147.228Z" fill="#E0E0E0"/>
<path d="M271.356 142.686C271.397 142.748 263.252 148.272 253.185 155.016C243.119 161.76 234.88 167.191 234.838 167.128C234.797 167.066 242.942 161.542 253.009 154.793C263.075 148.044 271.299 142.624 271.356 142.686Z" fill="#E0E0E0"/>
<path d="M274.965 148.075C275.007 148.137 266.861 153.661 256.795 160.41C246.728 167.159 238.489 172.579 238.447 172.517C238.406 172.455 246.526 166.957 256.618 160.208C266.711 153.458 274.934 148.018 274.965 148.075Z" fill="#E0E0E0"/>
<path d="M278.565 153.457C278.606 153.52 270.456 159.044 260.394 165.793C250.333 172.542 242.089 177.962 242.047 177.9C242.006 177.837 250.151 172.319 260.218 165.564C270.284 158.81 278.529 153.405 278.565 153.457Z" fill="#E0E0E0"/>
<path d="M282.202 158.864C282.243 158.926 274.097 164.445 264.031 171.194C253.964 177.943 245.725 183.363 245.684 183.306C245.642 183.249 253.788 177.72 263.854 170.971C273.921 164.222 282.134 158.802 282.202 158.864Z" fill="#E0E0E0"/>
<path d="M187.709 66.9346L134.33 38.3848L92.2916 116.984L145.671 145.534L187.709 66.9346Z" fill="#F5F5F5"/>
<path d="M136.535 120.943L133.15 122.101L124.553 98.3387L127.943 97.1758L136.535 120.943Z" fill="#E0E0E0"/>
<path d="M141.728 103.895L142.964 107.305L119.363 115.389L118.127 111.978L141.728 103.895Z" fill="#E0E0E0"/>
<path d="M158.495 68.8353C158.454 68.9132 153.044 66.0993 146.404 62.5534C139.764 59.0075 134.422 56.0638 134.463 55.986C134.505 55.9081 139.92 58.722 146.56 62.2679C153.2 65.8138 158.537 68.7522 158.495 68.8353Z" fill="#E0E0E0"/>
<path d="M171.307 82.9708C171.266 83.0487 162.305 78.3347 151.294 72.4474C140.282 66.56 131.394 61.7214 131.436 61.6435C131.477 61.5657 140.433 66.2745 151.444 72.167C162.456 78.0595 171.349 82.893 171.307 82.9708Z" fill="#E0E0E0"/>
<path d="M168.163 88.8556C168.121 88.9335 159.161 84.2247 148.149 78.3321C137.138 72.4396 128.25 67.6062 128.291 67.5283C128.333 67.4504 137.288 72.1644 148.3 78.0518C159.311 83.9391 168.204 88.7777 168.163 88.8556Z" fill="#E0E0E0"/>
<path d="M165.016 94.7356C164.975 94.8135 156.014 90.1046 145.003 84.2173C133.991 78.33 125.103 73.5069 125.145 73.4135C125.186 73.32 134.142 78.0444 145.153 83.9318C156.165 89.8191 165.058 94.6577 165.016 94.7356Z" fill="#E0E0E0"/>
<path d="M161.87 100.618C161.828 100.696 152.868 95.9871 141.856 90.0997C130.845 84.2124 121.952 79.3737 121.998 79.2959C122.045 79.218 130.995 83.9268 142.007 89.8142C153.018 95.7015 161.911 100.54 161.87 100.618Z" fill="#E0E0E0"/>
<path opacity="0.2" d="M162.146 0.304688H160.807V23.1376H162.146V0.304688Z" fill="black"/>
<path d="M130.205 50.7609H192.743C192.743 50.7609 186.97 23.1465 161.002 23.1465C137.904 23.1465 130.205 50.7609 130.205 50.7609Z" fill="#818181"/>
<path d="M162.144 0.304688H160.805V23.1376H162.144V0.304688Z" fill="#818181"/>
<path d="M300.717 228.649C300.717 228.721 233.616 228.784 150.856 228.784C68.0964 228.784 0.984375 228.737 0.984375 228.649C0.984375 228.56 68.0756 228.514 150.856 228.514C233.636 228.514 300.717 228.571 300.717 228.649Z" fill="#2F2F2F"/>
<path d="M17.5747 196.132C18.4524 196.195 19.3084 196.435 20.0915 196.836C20.8747 197.238 21.569 197.793 22.1329 198.468C23.2542 199.828 24.0482 201.426 24.4536 203.141C25.3309 206.422 24.791 210.3 23.8565 213.566C20.3055 212.294 18.1094 208.504 17.1074 206.51C15.5499 203.364 14.6206 196.719 17.5591 196.127" fill="#818181"/>
<path d="M28.9718 217.549C28.4385 216.722 28.1336 215.768 28.088 214.785C28.0424 213.802 28.2578 212.825 28.7122 211.952C29.1808 211.087 29.817 210.325 30.5836 209.709C31.3502 209.093 32.2318 208.636 33.177 208.365C34.044 208.095 35.0512 207.986 35.8039 208.489C36.1433 208.746 36.4076 209.089 36.5692 209.482C36.7308 209.876 36.7839 210.306 36.7229 210.727C36.5866 211.57 36.2282 212.362 35.6845 213.021C33.9557 215.363 31.8583 217.31 28.9354 217.549" fill="#818181"/>
<path d="M29.3657 228.518C29.2887 228.297 29.2348 228.069 29.2048 227.837C29.1114 227.349 28.9868 226.721 28.8362 225.968C28.3702 223.907 28.2405 221.784 28.452 219.681C28.6968 217.568 29.5016 215.559 30.7831 213.862C31.1746 213.354 31.6261 212.895 32.1277 212.496C32.264 212.388 32.4061 212.288 32.5534 212.195C32.6002 212.156 32.6528 212.125 32.7092 212.102C32.0524 212.663 31.4525 213.287 30.918 213.965C29.7041 215.665 28.9397 217.644 28.696 219.718C28.3638 222.137 28.7739 224.354 29.0127 225.948C29.1373 226.742 29.2411 227.386 29.2983 227.832C29.3392 228.059 29.3617 228.288 29.3657 228.518Z" fill="#2F2F2F"/>
<path d="M18.7168 201.131C18.7761 201.213 18.8249 201.302 18.8622 201.396C18.9556 201.603 19.0802 201.863 19.2256 202.19C19.5423 202.88 19.9836 203.882 20.5183 205.123C21.5878 207.61 23.0206 211.068 24.5158 214.92C26.011 218.772 27.283 222.287 28.15 224.846C28.5964 226.124 28.9443 227.162 29.1883 227.883C29.2973 228.226 29.3804 228.501 29.4479 228.714C29.4849 228.81 29.511 228.909 29.5257 229.01C29.4731 228.922 29.4313 228.828 29.4011 228.73C29.3233 228.522 29.2246 228.252 29.0948 227.915L27.9994 224.903C27.0701 222.365 25.7722 218.855 24.2822 215.008C22.7922 211.161 21.3801 207.693 20.3522 205.191C19.833 203.96 19.4332 202.958 19.1373 202.226C19.0023 201.894 18.8933 201.629 18.8102 201.416C18.7712 201.324 18.74 201.228 18.7168 201.131Z" fill="#2F2F2F"/>
<path d="M25.145 221.259C24.0767 219.481 22.6005 217.982 20.8383 216.887C19.0761 215.792 17.0786 215.132 15.0109 214.962C13.9726 214.889 12.6955 215.066 12.2282 216C11.761 216.935 12.384 218.077 13.1004 218.835C14.6226 220.427 16.5822 221.533 18.7321 222.014C20.882 222.494 23.126 222.327 25.1813 221.534" fill="#818181"/>
<path d="M16.6094 217.776C16.8295 217.765 17.0502 217.774 17.2687 217.802C17.5247 217.816 17.7795 217.845 18.0319 217.89C18.3278 217.947 18.6757 217.979 19.0391 218.082C19.4453 218.168 19.8458 218.279 20.2383 218.415C20.6931 218.561 21.1387 218.734 21.5726 218.934C22.5706 219.381 23.5147 219.94 24.3864 220.6C25.2481 221.276 26.0286 222.05 26.7123 222.905C27.0075 223.278 27.2797 223.668 27.5274 224.074C27.7512 224.424 27.9557 224.786 28.14 225.159C28.296 225.462 28.4346 225.774 28.5553 226.093C28.6594 226.329 28.7478 226.572 28.8201 226.82C28.897 227.027 28.9543 227.241 28.9914 227.458C28.9343 227.458 28.6851 226.566 27.9842 225.236C27.7934 224.879 27.5837 224.533 27.356 224.198C27.103 223.805 26.8292 223.425 26.5358 223.061C25.1779 221.383 23.4462 220.046 21.4791 219.157C21.0275 218.96 20.5966 218.773 20.176 218.638C19.79 218.497 19.3966 218.378 18.9975 218.28C17.5439 217.88 16.6042 217.833 16.6094 217.776Z" fill="#2F2F2F"/>
<path d="M252.274 55.0642C250.748 55.4121 250.005 57.1721 249.86 58.7295C249.715 60.287 249.912 61.938 249.258 63.3605C248.521 64.9595 246.761 66.1432 246.703 67.9032C246.667 68.9779 247.306 69.9799 247.275 71.0649C247.223 72.8301 245.426 74.1799 245.328 75.9243C245.26 77.1963 246.106 78.4111 245.904 79.6675C245.748 80.6435 244.985 81.4119 244.663 82.3464C244.025 84.2154 245.307 86.2661 246.973 87.3148C247.907 87.9018 248.958 88.2778 250.052 88.4167C251.146 88.5555 252.257 88.4537 253.307 88.1185C254.358 87.7833 255.323 87.2227 256.134 86.4759C256.946 85.7291 257.584 84.8141 258.006 83.7949C258.93 81.5521 258.727 79.0237 258.525 76.6096C257.902 69.0782 257.438 61.5365 257.133 53.9844" fill="#2F2F2F"/>
<path d="M247.84 81.6346C248.154 81.4394 248.399 81.1507 248.541 80.8091C248.69 80.4028 248.751 79.9689 248.717 79.5371C248.66 78.9647 248.533 78.4015 248.338 77.8602C248.09 77.1799 247.998 76.4524 248.068 75.7317C248.198 74.9218 248.78 74.2572 249.304 73.6031C249.586 73.2829 249.822 72.9247 250.005 72.5388C250.188 72.1486 250.217 71.7039 250.088 71.2928C249.818 70.4466 248.987 69.8236 248.608 68.8423C248.43 68.3566 248.401 67.8287 248.525 67.3264C248.643 66.8554 248.817 66.4004 249.044 65.9713C249.483 65.1986 249.831 64.3781 250.083 63.5261C250.446 61.8803 250.275 60.3073 250.524 59.0145C250.662 57.9792 251.122 57.0132 251.837 56.2526C252.04 56.0477 252.271 55.8728 252.523 55.7334C252.609 55.6881 252.702 55.655 252.798 55.6348C252.472 55.8139 252.174 56.0376 251.91 56.2993C251.247 57.0676 250.829 58.0169 250.711 59.0249C250.62 59.7135 250.571 60.407 250.565 61.1016C250.564 61.919 250.484 62.7343 250.327 63.5365C250.079 64.4081 249.73 65.2479 249.288 66.0388C248.899 66.8539 248.541 67.8092 248.883 68.7022C249.226 69.5951 250.051 70.2129 250.368 71.1682C250.511 71.6401 250.476 72.1481 250.27 72.5959C250.067 73.0206 249.805 73.414 249.491 73.764C248.972 74.4182 248.406 75.0412 248.281 75.768C248.208 76.4574 248.29 77.1544 248.52 77.8083C248.705 78.3664 248.82 78.9454 248.863 79.532C248.888 79.9837 248.808 80.4352 248.629 80.8506C248.517 81.1111 248.338 81.3369 248.11 81.5048C248.029 81.5643 247.937 81.6082 247.84 81.6346Z" fill="#555555"/>
<path d="M243.781 93.9453L239.108 107.444L219.567 108.482L216.307 115.75L236.71 117.827C237.674 118.223 238.708 118.419 239.75 118.404C240.792 118.389 241.82 118.162 242.772 117.739C243.724 117.315 244.58 116.703 245.289 115.939C245.998 115.175 246.544 114.276 246.896 113.295L252.342 98.0934L243.781 93.9453Z" fill="#979797"/>
<path d="M284.177 221.313C284.177 221.313 269.859 175.823 269.553 174.349C269.277 173.009 274.744 140.276 275.44 131.777L256.091 132.499V132.691L247.867 133.148L255.229 226.141H264.133L263.25 195.276C268.743 210.016 276.613 225.04 276.613 225.04L284.177 221.313Z" fill="#979797"/>
<path d="M263.613 206.348C263.613 206.068 263.504 196.007 263.504 196.007C263.395 196.609 260.093 187.274 260.171 186.708C260.213 186.412 263.613 206.348 263.613 206.348Z" fill="#7D7D7D"/>
<path d="M259.797 182.287C259.752 182.472 259.732 182.663 259.74 182.853C259.712 183.372 259.712 183.892 259.74 184.41C259.74 184.738 259.787 185.091 259.829 185.475C259.87 185.859 259.927 186.264 260.015 186.684C260.2 187.603 260.445 188.508 260.747 189.394C261.391 191.279 262.108 192.925 262.611 194.119C262.85 194.638 263.058 195.131 263.234 195.526C263.298 195.709 263.385 195.884 263.494 196.045C263.466 195.866 263.414 195.691 263.338 195.526C263.219 195.183 263.037 194.69 262.819 194.083C262.362 192.868 261.677 191.206 261.038 189.343C260.736 188.469 260.488 187.578 260.296 186.674C260.202 186.259 260.14 185.859 260.083 185.485C260.026 185.111 259.984 184.758 259.958 184.447C259.896 183.803 259.87 183.284 259.855 182.92C259.864 182.708 259.845 182.495 259.797 182.287Z" fill="#7D7D7D"/>
<path d="M255.063 226.613V225.777L264.185 225.377L264.211 228.829L263.65 228.866C261.143 229.011 250.905 229.437 249.233 228.933C247.359 228.373 255.063 226.613 255.063 226.613Z" fill="#555555"/>
<path d="M264.328 228.619C264.276 228.623 264.224 228.623 264.172 228.619L263.726 228.65L262.075 228.723C260.684 228.78 258.757 228.832 256.634 228.842C254.511 228.853 252.579 228.816 251.183 228.775L249.537 228.707H249.085H248.93C248.982 228.703 249.034 228.703 249.085 228.707H249.537L251.188 228.739C252.579 228.739 254.505 228.78 256.629 228.77C258.752 228.759 260.684 228.723 262.075 228.687L263.726 228.645H264.328V228.619Z" fill="#2F2F2F"/>
<path d="M252.088 228.912C252.013 228.641 251.908 228.378 251.777 228.128C251.613 227.898 251.423 227.687 251.211 227.5C251.494 227.601 251.73 227.805 251.87 228.071C252.042 228.316 252.119 228.615 252.088 228.912Z" fill="#2F2F2F"/>
<path d="M254.777 227.547C254.777 227.547 254.627 227.407 254.492 227.199C254.357 226.991 254.274 226.81 254.3 226.794C254.326 226.779 254.45 226.929 254.585 227.137C254.72 227.344 254.803 227.531 254.777 227.547Z" fill="#2F2F2F"/>
<path d="M255.513 227.178C255.513 227.204 255.347 227.106 255.191 226.965C255.035 226.825 254.921 226.696 254.942 226.675C254.963 226.654 255.108 226.747 255.264 226.888C255.42 227.028 255.534 227.132 255.513 227.178Z" fill="#2F2F2F"/>
<path d="M255.977 226.295C255.825 226.35 255.662 226.372 255.5 226.357C255.341 226.378 255.179 226.362 255.027 226.31C255.178 226.254 255.34 226.233 255.5 226.248C255.66 226.226 255.824 226.242 255.977 226.295Z" fill="#2F2F2F"/>
<path d="M256.132 225.692C255.977 225.792 255.797 225.846 255.613 225.848C255.436 225.871 255.257 225.846 255.094 225.775C255.265 225.746 255.439 225.732 255.613 225.733C255.784 225.703 255.958 225.689 256.132 225.692Z" fill="#2F2F2F"/>
<path d="M254.469 226.751C254.275 226.787 254.076 226.787 253.883 226.751C253.673 226.725 253.466 226.68 253.265 226.616C253.14 226.581 253.02 226.533 252.907 226.471C252.838 226.43 252.786 226.365 252.761 226.289C252.752 226.246 252.755 226.2 252.771 226.159C252.786 226.117 252.814 226.081 252.849 226.055C252.993 225.986 253.151 225.949 253.31 225.947C253.47 225.946 253.628 225.98 253.773 226.047C253.918 226.114 254.047 226.212 254.149 226.335C254.251 226.458 254.325 226.601 254.365 226.756C254.376 226.808 254.376 226.86 254.365 226.912C254.307 226.724 254.215 226.549 254.095 226.393C253.957 226.237 253.777 226.125 253.576 226.071C253.347 225.997 253.097 226.015 252.881 226.123C252.792 226.19 252.829 226.299 252.927 226.362C253.033 226.419 253.145 226.466 253.26 226.502C253.455 226.566 253.654 226.616 253.857 226.652C254.246 226.735 254.469 226.735 254.469 226.751Z" fill="#2F2F2F"/>
<path d="M254.321 226.784C254.245 226.664 254.219 226.518 254.248 226.379C254.267 226.226 254.322 226.081 254.409 225.953C254.458 225.867 254.527 225.794 254.612 225.741C254.696 225.688 254.792 225.658 254.892 225.652C254.951 225.666 255.002 225.701 255.036 225.752C255.069 225.802 255.083 225.863 255.073 225.922C255.061 226.015 255.027 226.104 254.975 226.182C254.896 226.311 254.804 226.431 254.7 226.54C254.609 226.644 254.495 226.724 254.367 226.774C254.367 226.774 254.482 226.67 254.642 226.483C254.736 226.376 254.818 226.259 254.886 226.135C254.964 226.011 255.021 225.787 254.886 225.761C254.752 225.735 254.596 225.896 254.507 226.011C254.425 226.123 254.368 226.253 254.341 226.39C254.32 226.52 254.313 226.652 254.321 226.784Z" fill="#2F2F2F"/>
<path d="M264.138 226.138C264.138 226.138 263.878 226.138 263.468 226.164C262.934 226.228 262.428 226.441 262.009 226.778C261.59 227.114 261.273 227.562 261.095 228.07C260.96 228.459 260.95 228.724 260.929 228.719C260.908 228.714 260.929 228.651 260.929 228.537C260.942 228.37 260.974 228.204 261.023 228.044C261.188 227.512 261.506 227.041 261.936 226.689C262.373 226.343 262.902 226.135 263.457 226.092C263.63 226.071 263.804 226.071 263.977 226.092C264.032 226.1 264.086 226.116 264.138 226.138Z" fill="#2F2F2F"/>
<path d="M259.77 227.894C259.335 227.995 258.888 228.039 258.441 228.023C257.997 228.046 257.551 228.007 257.117 227.909C257.117 227.878 257.709 227.909 258.441 227.909C259.173 227.909 259.765 227.862 259.77 227.894Z" fill="#2F2F2F"/>
<path d="M261.547 227.878C261.547 227.878 261.5 228.003 261.438 228.138C261.375 228.273 261.344 228.397 261.313 228.392C261.282 228.387 261.266 228.252 261.339 228.091C261.412 227.93 261.526 227.852 261.547 227.878Z" fill="#2F2F2F"/>
<path d="M262.216 227.043C262.216 227.043 262.179 227.158 262.086 227.251C261.993 227.344 261.899 227.407 261.873 227.386C261.847 227.365 261.909 227.272 262.003 227.173C262.096 227.075 262.19 227.017 262.216 227.043Z" fill="#2F2F2F"/>
<path d="M263.171 226.657C263.171 226.688 263.047 226.688 262.912 226.735C262.777 226.782 262.683 226.854 262.657 226.834C262.631 226.813 262.709 226.688 262.875 226.631C263.041 226.574 263.182 226.626 263.171 226.657Z" fill="#2F2F2F"/>
<path d="M263.851 226.473C263.851 226.504 263.815 226.55 263.737 226.576C263.659 226.602 263.592 226.608 263.581 226.576C263.571 226.545 263.623 226.499 263.696 226.473C263.768 226.447 263.841 226.447 263.851 226.473Z" fill="#2F2F2F"/>
<path d="M276.43 225.807L276.087 225.043L284.243 220.947L285.682 224.062L285.162 224.327C282.935 225.485 273.772 230.064 272.038 230.292C270.122 230.567 276.43 225.807 276.43 225.807Z" fill="#555555"/>
<path d="M285.714 223.84L285.579 223.923L285.179 224.131L283.705 224.878C282.459 225.496 280.725 226.332 278.788 227.214C276.852 228.097 275.076 228.85 273.789 229.385L272.257 230.002L271.842 230.163C271.794 230.185 271.743 230.201 271.691 230.21L271.832 230.143L272.242 229.961L273.758 229.312C275.04 228.762 276.805 227.993 278.742 227.111C280.678 226.228 282.417 225.408 283.674 224.805L285.158 224.094L285.569 223.902L285.714 223.84Z" fill="#2F2F2F"/>
<path d="M274.68 229.12C274.5 228.901 274.296 228.703 274.072 228.528C273.829 228.384 273.569 228.269 273.299 228.186C273.597 228.182 273.889 228.269 274.136 228.436C274.383 228.603 274.573 228.842 274.68 229.12Z" fill="#2F2F2F"/>
<path d="M276.555 226.774C276.555 226.774 276.358 226.711 276.15 226.577C275.943 226.442 275.792 226.312 275.808 226.286C275.823 226.26 276.005 226.348 276.213 226.483C276.42 226.618 276.571 226.748 276.555 226.774Z" fill="#2F2F2F"/>
<path d="M277.065 226.139C277.065 226.165 276.888 226.139 276.686 226.077C276.483 226.015 276.333 225.937 276.338 225.906C276.469 225.893 276.602 225.915 276.722 225.968C276.919 226.015 277.075 226.087 277.065 226.139Z" fill="#2F2F2F"/>
<path d="M277.137 225.143C277.137 225.174 276.966 225.283 276.727 225.397C276.589 225.48 276.435 225.531 276.275 225.548C276.275 225.516 276.447 225.407 276.68 225.293C276.82 225.211 276.976 225.159 277.137 225.143Z" fill="#2F2F2F"/>
<path d="M277.033 224.53C277.033 224.53 276.883 224.738 276.613 224.889C276.46 224.992 276.279 225.047 276.094 225.044C276.243 224.944 276.401 224.859 276.566 224.79C276.821 224.65 277.007 224.504 277.033 224.53Z" fill="#2F2F2F"/>
<path d="M275.97 226.18C275.812 226.288 275.636 226.369 275.451 226.419C275.247 226.478 275.039 226.521 274.828 226.548C274.7 226.564 274.571 226.564 274.444 226.548C274.364 226.542 274.289 226.505 274.236 226.445C274.212 226.407 274.199 226.364 274.199 226.32C274.199 226.276 274.212 226.232 274.236 226.195C274.394 226.004 274.613 225.874 274.857 225.826C275.1 225.779 275.352 225.818 275.57 225.936C275.699 226.003 275.812 226.097 275.903 226.211C275.965 226.294 275.991 226.346 275.986 226.351C275.858 226.208 275.705 226.09 275.534 226.003C275.351 225.917 275.147 225.887 274.947 225.915C274.828 225.927 274.713 225.963 274.608 226.02C274.503 226.077 274.41 226.154 274.335 226.247C274.278 226.346 274.335 226.429 274.475 226.445C274.594 226.455 274.714 226.455 274.833 226.445C275.04 226.424 275.245 226.387 275.446 226.336C275.742 226.252 275.97 226.164 275.97 226.18Z" fill="#2F2F2F"/>
<path d="M275.824 226.269C275.708 226.187 275.627 226.065 275.595 225.927C275.55 225.781 275.539 225.626 275.564 225.475C275.573 225.375 275.607 225.279 275.664 225.197C275.72 225.114 275.796 225.047 275.886 225.002C276.016 224.961 276.317 225.226 276.338 225.324C276.358 225.423 276.187 225.371 276.177 225.454C276.16 225.601 276.125 225.746 276.073 225.885C276.035 226.019 275.964 226.14 275.865 226.238C275.865 226.238 275.927 226.098 276 225.864C276.037 225.726 276.063 225.586 276.078 225.444C276.078 225.298 276.078 225.075 275.912 225.111C275.746 225.148 275.699 225.35 275.663 225.496C275.631 225.631 275.631 225.771 275.663 225.906C275.706 226.031 275.759 226.153 275.824 226.269Z" fill="#2F2F2F"/>
<path d="M284.519 221.654C284.519 221.654 284.27 221.743 283.917 221.955C283.455 222.231 283.08 222.631 282.832 223.108C282.592 223.59 282.489 224.129 282.536 224.665C282.567 225.081 282.666 225.32 282.645 225.33C282.611 225.279 282.585 225.223 282.567 225.164C282.516 225.005 282.479 224.842 282.458 224.676C282.384 224.123 282.48 223.561 282.733 223.063C282.986 222.566 283.384 222.158 283.875 221.893C284.022 221.812 284.177 221.746 284.337 221.696C284.396 221.673 284.457 221.659 284.519 221.654Z" fill="#2F2F2F"/>
<path d="M281.254 225.048C280.522 225.557 279.704 225.93 278.84 226.149C278.84 226.118 279.385 225.91 280.049 225.63C280.714 225.349 281.238 225.022 281.254 225.048Z" fill="#2F2F2F"/>
<path d="M282.867 224.306C282.893 224.306 282.867 224.436 282.867 224.586C282.867 224.737 282.867 224.862 282.867 224.872C282.867 224.882 282.764 224.758 282.764 224.586C282.764 224.415 282.842 224.29 282.867 224.306Z" fill="#2F2F2F"/>
<path d="M283.134 223.268C283.16 223.268 283.134 223.388 283.103 223.512C283.071 223.637 282.994 223.73 282.968 223.72C282.942 223.71 282.968 223.601 282.999 223.476C283.03 223.351 283.103 223.258 283.134 223.268Z" fill="#2F2F2F"/>
<path d="M283.849 222.506C283.849 222.537 283.745 222.584 283.641 222.683C283.538 222.781 283.48 222.885 283.455 222.875C283.429 222.865 283.455 222.719 283.569 222.6C283.683 222.48 283.844 222.506 283.849 222.506Z" fill="#2F2F2F"/>
<path d="M284.396 222.079C284.396 222.079 284.396 222.162 284.333 222.219C284.271 222.276 284.214 222.307 284.193 222.286C284.173 222.266 284.193 222.203 284.256 222.146C284.318 222.089 284.375 222.058 284.396 222.079Z" fill="#2F2F2F"/>
<path d="M274.183 116.409L272.667 97.8744L280.454 98.0145C280.454 98.0145 280.812 95.2785 279.665 89.2874C278.959 85.6117 276.514 83.3585 273.767 82.019V81.9671L273.528 81.9048C271.268 80.8898 268.853 80.2599 266.385 80.041L256.806 80.15C256.806 80.15 249.491 79.2155 245.457 84.4539C243.9 86.4631 239.066 100.216 239.066 100.216L250.566 105.75L249.491 98.1236C249.491 98.1236 249.709 103.653 250.415 105.392C250.805 106.368 251.973 109.4 251.973 109.4L251.822 118.548L274.183 116.409Z" fill="#818181"/>
<path d="M268.903 95.1854L267.48 101.239H280.89L280.008 91.084L268.903 95.1854Z" fill="#818181"/>
<path d="M280.891 101.24C280.305 101.132 279.711 101.073 279.115 101.063C278.014 101.001 276.519 100.944 274.816 100.954C273.114 100.965 271.613 101.037 270.513 101.12C269.917 101.141 269.325 101.214 268.742 101.339C269.337 101.386 269.934 101.386 270.528 101.339C271.624 101.302 273.124 101.261 274.816 101.255C276.509 101.25 278.009 101.255 279.11 101.281C279.704 101.315 280.299 101.301 280.891 101.24Z" fill="#2F2F2F"/>
<path d="M268.321 91.0371C268.257 91.5537 268.243 92.0753 268.279 92.5946C268.279 93.5447 268.321 94.853 268.378 96.3014C268.435 97.7499 268.503 99.0634 268.565 100.008C268.568 100.532 268.623 101.054 268.731 101.566C268.795 101.049 268.809 100.528 268.773 100.008C268.773 99.0582 268.731 97.7447 268.674 96.2963C268.617 94.8478 268.549 93.5395 268.487 92.5894C268.485 92.0677 268.429 91.5475 268.321 91.0371Z" fill="#2F2F2F"/>
<g opacity="0.3">
<path d="M256.119 96.2812C256.119 96.2812 259.099 118.382 267.478 117.795C267.478 117.795 271.253 117.754 272.462 115.246V114.26L256.119 96.2812Z" fill="black"/>
</g>
<g opacity="0.3">
<path d="M268.323 92.3398L266.719 103.175L267.757 105.075L269.47 101.358L268.743 101.337L268.323 92.3398Z" fill="black"/>
</g>
<path d="M251.926 109.409C251.827 109.248 251.75 109.073 251.698 108.89C251.568 108.553 251.397 108.06 251.179 107.442C250.659 105.832 250.231 104.194 249.896 102.536C249.563 100.876 249.351 99.195 249.263 97.5049C249.232 96.856 249.221 96.3316 249.232 95.9474C249.218 95.7597 249.231 95.5711 249.268 95.3867C249.31 95.3867 249.341 96.1862 249.45 97.4634C249.596 99.1381 249.833 100.804 250.161 102.453C250.545 104.384 251.007 106.113 251.36 107.353C251.526 107.93 251.667 108.423 251.781 108.828C251.852 109.015 251.901 109.211 251.926 109.409Z" fill="#2F2F2F"/>
<path d="M255.312 115.759C255.239 115.759 255.031 115.307 254.849 114.72C254.693 114.361 254.624 113.969 254.647 113.578C254.876 113.895 255.034 114.258 255.109 114.642C255.258 114.995 255.327 115.376 255.312 115.759Z" fill="#2F2F2F"/>
<path d="M256.469 115.677C256.077 114.636 256.06 113.49 256.422 112.438C256.463 112.977 256.463 113.518 256.422 114.057C256.479 114.595 256.495 115.137 256.469 115.677Z" fill="#2F2F2F"/>
<path d="M250.801 106.006C250.764 106.068 248.091 104.801 244.825 103.171C241.56 101.541 238.938 100.16 238.969 100.092C239 100.025 241.679 101.297 244.945 102.927C248.21 104.557 250.832 105.938 250.801 106.006Z" fill="#2F2F2F"/>
<path d="M255.512 81.94C255.569 79.3131 255.585 76.5511 255.585 76.5511C255.585 76.5511 252.216 75.9021 251.629 71.4685C251.068 67.2425 252.636 57.3212 252.636 57.3212C257.558 55.4626 262.672 57.1499 266.041 61.1371L265.205 82.4592C265.106 84.9356 262.9 86.8254 260.252 86.7008C257.573 86.571 255.455 84.4424 255.512 81.94Z" fill="#979797"/>
<path d="M252.379 65.2503C252.375 65.3959 252.426 65.5377 252.522 65.6467C252.619 65.7557 252.753 65.8238 252.898 65.837C252.972 65.8441 253.046 65.8361 253.117 65.8136C253.187 65.791 253.253 65.7543 253.308 65.7057C253.364 65.6572 253.41 65.5977 253.442 65.531C253.474 65.4643 253.492 65.3918 253.495 65.3178C253.5 65.1728 253.448 65.0316 253.352 64.9234C253.255 64.8152 253.121 64.7483 252.976 64.7363C252.902 64.7251 252.827 64.73 252.755 64.7507C252.683 64.7714 252.616 64.8074 252.56 64.8562C252.503 64.905 252.457 64.9655 252.426 65.0335C252.395 65.1015 252.379 65.1755 252.379 65.2503Z" fill="#2F2F2F"/>
<path d="M252.17 64.5084C252.237 64.581 252.689 64.2747 253.286 64.2955C253.883 64.3163 254.324 64.6278 254.397 64.5551C254.469 64.4824 254.366 64.3889 254.174 64.2384C253.914 64.0501 253.602 63.9467 253.281 63.9425C252.964 63.9304 252.653 64.0215 252.393 64.202C252.201 64.3422 252.133 64.472 252.17 64.5084Z" fill="#2F2F2F"/>
<path d="M258.563 65.6331C258.557 65.779 258.608 65.9215 258.705 66.0308C258.801 66.1401 258.937 66.2079 259.082 66.2198C259.157 66.2311 259.233 66.2261 259.305 66.2051C259.377 66.1841 259.444 66.1477 259.501 66.0983C259.557 66.0489 259.603 65.9877 259.634 65.9191C259.665 65.8504 259.68 65.7759 259.679 65.7006C259.685 65.5553 259.634 65.4134 259.537 65.3049C259.44 65.1964 259.305 65.1298 259.16 65.1192C259.086 65.1079 259.011 65.1128 258.939 65.1335C258.867 65.1542 258.8 65.1902 258.743 65.239C258.687 65.2878 258.641 65.3483 258.61 65.4163C258.579 65.4844 258.563 65.5583 258.563 65.6331Z" fill="#2F2F2F"/>
<path d="M258.521 64.8927C258.588 64.9706 259.04 64.6643 259.637 64.6799C260.234 64.6955 260.675 65.0121 260.753 64.9395C260.831 64.8668 260.717 64.7733 260.525 64.628C260.269 64.4347 259.958 64.3291 259.637 64.3268C259.32 64.3173 259.007 64.4082 258.744 64.5864C258.557 64.7266 258.49 64.8564 258.521 64.8927Z" fill="#2F2F2F"/>
<path d="M256.193 69.3522C255.874 69.2426 255.543 69.1746 255.206 69.1497C255.051 69.1497 254.905 69.0926 254.885 68.9888C254.872 68.8265 254.912 68.6645 254.999 68.5267L255.487 67.3586C255.941 66.3658 256.314 65.338 256.603 64.2852C256.071 65.2391 255.617 66.2338 255.243 67.26C255.082 67.6701 254.921 68.0647 254.77 68.4385C254.67 68.624 254.637 68.8387 254.677 69.0459C254.697 69.1022 254.73 69.153 254.774 69.1944C254.817 69.2359 254.869 69.2667 254.926 69.2847C255.012 69.3097 255.101 69.3236 255.191 69.3263C255.522 69.3773 255.859 69.386 256.193 69.3522Z" fill="#2F2F2F"/>
<path d="M255.586 76.5527C257.663 76.6359 259.722 76.1417 261.536 75.125C261.536 75.125 260.025 78.1206 255.617 77.5962L255.586 76.5527Z" fill="#7D7D7D"/>
<path d="M260.471 63.1209C260.346 63.313 259.879 63.23 259.36 63.1209C258.84 63.0119 258.384 62.9237 258.321 62.7004C258.259 62.4772 258.804 62.1813 259.5 62.3214C260.195 62.4616 260.595 62.9548 260.471 63.1209Z" fill="#2F2F2F"/>
<path d="M254.413 62.2377C254.366 62.461 253.868 62.544 253.297 62.57C252.726 62.5959 252.222 62.57 252.155 62.3416C252.087 62.1131 252.57 61.7912 253.261 61.7601C253.951 61.7289 254.46 62.0249 254.413 62.2377Z" fill="#2F2F2F"/>
<path d="M256.204 70.8114C256.138 70.7959 256.069 70.8028 256.008 70.831C255.947 70.8593 255.897 70.9072 255.866 70.9672C255.837 71.0201 255.822 71.0799 255.822 71.1405C255.823 71.2011 255.839 71.2605 255.87 71.3128C255.901 71.3651 255.945 71.4085 255.997 71.4386C256.05 71.4687 256.109 71.4846 256.17 71.4846C256.231 71.4846 256.29 71.4687 256.343 71.4386C256.396 71.4085 256.439 71.3651 256.47 71.3128C256.501 71.2605 256.517 71.2011 256.518 71.1405C256.519 71.0799 256.503 71.0201 256.474 70.9672C256.437 70.8974 256.377 70.8425 256.304 70.8113C256.231 70.7802 256.15 70.7747 256.074 70.7958" fill="#7D7D7D"/>
<path d="M256.344 70.8725C256.344 70.8465 256.245 70.696 255.98 70.7531C255.901 70.7737 255.829 70.8148 255.771 70.8722C255.712 70.9296 255.67 71.0013 255.648 71.0801C255.62 71.1795 255.623 71.285 255.655 71.383C255.687 71.481 255.748 71.5672 255.83 71.6305C255.916 71.6896 256.019 71.7213 256.123 71.7213C256.228 71.7213 256.33 71.6896 256.417 71.6305C256.486 71.5839 256.54 71.5187 256.573 71.4423C256.606 71.366 256.617 71.2817 256.603 71.1995C256.552 70.9244 256.349 70.8829 256.339 70.9192C256.328 70.9555 256.411 71.049 256.396 71.2099C256.392 71.2497 256.379 71.288 256.357 71.3215C256.336 71.355 256.306 71.3826 256.271 71.402C256.231 71.4253 256.185 71.4375 256.139 71.4375C256.092 71.4375 256.047 71.4253 256.006 71.402C255.97 71.3713 255.943 71.3317 255.926 71.2871C255.91 71.2426 255.905 71.1945 255.913 71.1476C255.919 71.1066 255.935 71.0677 255.959 71.0342C255.984 71.0007 256.016 70.9737 256.053 70.9555C256.198 70.8673 256.328 70.9088 256.344 70.8725Z" fill="#2F2F2F"/>
<path d="M264.029 66.3454C263.51 67.5603 262.223 68.5 262.399 69.8135C262.513 70.6597 263.058 71.4488 262.955 72.3003C262.82 73.3386 261.714 74.107 261.553 75.1713C261.361 76.4744 262.633 77.4867 263.136 78.7016C263.879 80.4771 262.934 82.4707 262.908 84.4124C262.938 85.8866 263.502 87.2997 264.495 88.3898C265.488 89.48 266.842 90.1733 268.307 90.3413C269.491 90.4399 270.825 90.0817 271.422 89.0641C271.941 88.2231 271.827 87.1536 272.128 86.2243C272.585 84.8329 273.909 83.8154 274.205 82.3825C274.724 79.7866 271.557 77.6061 271.765 74.948C271.853 73.811 272.554 72.8246 272.85 71.724C273.038 71.0007 273.053 70.243 272.892 69.513C272.731 68.783 272.4 68.1014 271.926 67.524C271.142 66.5946 270.01 65.9665 269.33 64.9697C268.577 63.8223 268.551 62.3738 268.292 61.0188C267.943 59.3718 267.182 57.8401 266.081 56.5668C264.98 55.2935 263.574 54.3201 261.994 53.7378C260.415 53.1554 258.713 52.9831 257.049 53.2368C255.385 53.4905 253.812 54.162 252.478 55.1886C252.478 55.1886 251.725 58.6099 255.24 59.1862C258.755 59.7624 260.379 59.0979 260.774 60.5048C260.681 61.0844 260.727 61.6778 260.907 62.2364C261.088 62.795 261.398 63.3028 261.812 63.7185C263.245 65.2656 264.611 64.9333 264.029 66.3454Z" fill="#2F2F2F"/>
<path d="M269.609 90.0754C269.501 90.0791 269.392 90.0686 269.287 90.0442C268.983 89.9903 268.684 89.9086 268.394 89.8002C267.322 89.3892 266.382 88.6948 265.674 87.7911C265.177 87.1675 264.788 86.4657 264.521 85.7144C264.218 84.8588 264.058 83.9588 264.049 83.0511C264.038 82.0505 264.164 81.0532 264.422 80.0866C264.564 79.5762 264.737 79.0751 264.942 78.5862C265.156 78.0997 265.345 77.6024 265.507 77.0962C265.65 76.5975 265.65 76.0687 265.507 75.5699C265.356 75.0789 265.159 74.6028 264.921 74.1474C264.68 73.6958 264.477 73.2253 264.313 72.7404C264.154 72.2606 264.116 71.7484 264.204 71.2504C264.412 70.2744 265.004 69.5476 265.357 68.8052C265.693 68.1179 265.854 67.358 265.824 66.5935C265.777 65.4747 265.371 64.4008 264.666 63.5305C264.394 63.2256 264.1 62.9394 263.789 62.6738C264.153 62.8784 264.478 63.1455 264.75 63.463C265.506 64.332 265.951 65.4278 266.016 66.578C266.059 67.3758 265.902 68.1717 265.559 68.8934C265.201 69.6618 264.625 70.3938 264.448 71.2868C264.272 72.1797 264.692 73.1194 265.154 74.0228C265.406 74.4912 265.612 74.9833 265.767 75.492C265.92 76.0352 265.92 76.6102 265.767 77.1534C265.594 77.6771 265.395 78.1917 265.17 78.6953C264.966 79.1735 264.792 79.6642 264.651 80.1645C264.393 81.1066 264.266 82.0796 264.272 83.0563C264.256 84.7197 264.793 86.3413 265.798 87.6665C266.471 88.5589 267.366 89.2589 268.394 89.6964C269.168 89.9975 269.614 90.0442 269.609 90.0754Z" fill="#555555"/>
<path d="M269.091 63.878C268.838 63.9435 268.578 63.9818 268.317 63.9922C267.605 64.0684 266.885 64.0492 266.178 63.9351C265.642 63.8557 265.127 63.6702 264.664 63.3894C264.2 63.1086 263.797 62.7382 263.478 62.2998C263.182 61.7451 262.945 61.1603 262.772 60.5554C262.551 59.9511 262.134 59.4378 261.589 59.0965C260.452 58.3749 259.118 58.2866 257.955 58.1464C256.882 58.093 255.84 57.7678 254.928 57.2015C254.317 56.7966 253.875 56.1814 253.687 55.4727C253.642 55.2806 253.629 55.0823 253.651 54.8861C253.651 54.7511 253.682 54.6836 253.692 54.6836C253.698 54.9407 253.731 55.1965 253.791 55.4468C254.006 56.1094 254.447 56.6754 255.037 57.0458C255.933 57.5684 256.944 57.861 257.981 57.8972C259.143 58.0322 260.524 58.0997 261.739 58.8681C262.334 59.2414 262.787 59.8022 263.027 60.4619C263.189 61.0515 263.414 61.6223 263.697 62.1648C264.301 62.9943 265.207 63.5535 266.22 63.7223C266.904 63.8495 267.601 63.8965 268.296 63.8624C268.561 63.8476 268.827 63.8528 269.091 63.878Z" fill="#555555"/>
<path d="M267.803 59.6512C267.608 59.7167 267.402 59.7465 267.196 59.7395C266.228 59.746 265.296 59.3733 264.6 58.7012C264.283 58.3827 264.012 58.0209 263.795 57.6265C263.328 56.8374 262.877 55.8665 261.906 55.4616C260.97 55.1478 259.974 55.0606 258.998 55.2072C258.175 55.3228 257.34 55.3228 256.517 55.2072C255.944 55.1277 255.405 54.8904 254.959 54.5219C254.844 54.4215 254.743 54.3063 254.658 54.1792C254.596 54.0892 254.57 54.0425 254.58 54.0391C254.58 54.0391 254.726 54.2052 255.027 54.4388C255.471 54.7546 255.986 54.9544 256.527 55.0203C257.335 55.1114 258.152 55.0975 258.957 54.9788C259.975 54.8125 261.019 54.9017 261.994 55.2383C262.495 55.4636 262.925 55.8229 263.235 56.2767C263.508 56.6814 263.76 57.1008 263.988 57.533C264.192 57.9104 264.445 58.2594 264.74 58.5714C265.001 58.8352 265.3 59.0575 265.628 59.2307C266.111 59.4829 266.642 59.6297 267.186 59.6616C267.585 59.6564 267.798 59.6253 267.803 59.6512Z" fill="#555555"/>
<path d="M271.156 88.9548C271.13 88.9548 271.296 88.6121 271.488 87.9684C271.748 87.0646 271.863 86.1255 271.83 85.1856C271.793 83.7945 271.413 82.434 270.725 81.2244C270.346 80.5443 269.769 79.9369 269.297 79.1893C269.047 78.8084 268.871 78.384 268.778 77.9381C268.696 77.4687 268.735 76.9862 268.892 76.5363C269.183 75.6382 269.702 74.8854 269.816 74.0599C269.93 73.2345 269.536 72.5024 269.141 71.8119C268.938 71.4759 268.752 71.1293 268.586 70.7736C268.434 70.4286 268.334 70.0629 268.29 69.6885C268.241 69.0289 268.262 68.3658 268.352 67.7105C268.518 66.7842 268.432 65.8302 268.103 64.9486C267.956 64.6397 267.747 64.3641 267.49 64.1387C267.49 64.1387 267.516 64.1387 267.553 64.1698C267.614 64.2004 267.67 64.2407 267.719 64.2892C267.922 64.4584 268.086 64.669 268.201 64.907C268.577 65.7963 268.694 66.7734 268.539 67.7261C268.467 68.3692 268.459 69.0178 268.513 69.6626C268.641 70.3879 268.928 71.0759 269.354 71.677C269.576 72.0278 269.765 72.3979 269.92 72.7828C270.083 73.1982 270.137 73.6488 270.076 74.0911C269.951 74.9996 269.416 75.768 269.146 76.6142C269.005 77.0225 268.967 77.4597 269.037 77.8862C269.128 78.2987 269.293 78.691 269.525 79.0439C269.967 79.7656 270.564 80.3834 270.943 81.0946C271.638 82.345 272.009 83.7497 272.023 85.1805C272.039 86.1381 271.891 87.0916 271.586 87.9995C271.503 88.2452 271.403 88.4847 271.285 88.716C271.254 88.8014 271.21 88.8818 271.156 88.9548Z" fill="#555555"/>
<path d="M250.01 185.69C250.01 185.69 246.51 152.547 246.308 140.3C246.106 128.053 251.816 115.966 251.816 115.966L274.182 115.037C274.182 115.037 278.605 127.461 278.683 132.689C278.839 142.833 275.988 152.848 276.316 160.895L277.063 185.711" fill="#2F2F2F"/>
<path d="M277.816 144.943C277.7 145.045 277.576 145.138 277.448 145.224L277.245 145.364L277.027 145.577C276.835 145.743 276.661 145.929 276.508 146.132C275.786 147.015 275.262 148.598 274.758 150.566C274.501 151.657 274.121 152.716 273.627 153.722C273.476 153.998 273.302 154.26 273.107 154.506C273.014 154.631 272.926 154.766 272.817 154.885L272.474 155.228C271.983 155.687 271.413 156.052 270.792 156.308C269.541 156.858 268.123 157.118 266.836 157.767C265.517 158.476 264.498 159.638 263.965 161.037C263.332 162.444 262.927 163.919 262.408 165.3C261.888 166.681 261.188 167.999 260.071 168.841C259.004 169.582 257.737 169.982 256.437 169.988C255.233 170.061 254.117 170.024 253.115 170.175C252.213 170.268 251.351 170.594 250.612 171.12C250.073 171.541 249.669 172.112 249.449 172.76C249.31 173.169 249.28 173.608 249.361 174.032C249.423 174.323 249.501 174.463 249.486 174.468C249.402 174.338 249.342 174.194 249.309 174.043C249.2 173.61 249.214 173.154 249.351 172.729C249.557 172.048 249.964 171.446 250.519 171C251.276 170.429 252.172 170.071 253.115 169.962C254.153 169.796 255.259 169.817 256.448 169.739C257.709 169.73 258.938 169.339 259.973 168.617C261.022 167.7 261.796 166.511 262.21 165.18C262.729 163.815 263.108 162.335 263.768 160.903C264.326 159.445 265.392 158.238 266.769 157.502C268.108 156.837 269.525 156.583 270.745 156.053C271.343 155.806 271.891 155.455 272.365 155.015L272.692 154.688C272.796 154.574 272.884 154.444 272.978 154.325C273.161 154.089 273.322 153.837 273.46 153.572C273.958 152.58 274.343 151.535 274.608 150.457C275.127 148.494 275.693 146.89 276.456 146.002C276.608 145.8 276.782 145.616 276.975 145.452C277.058 145.379 277.131 145.307 277.204 145.25L277.416 145.115C277.546 145.05 277.68 144.992 277.816 144.943Z" fill="#FAFAFA"/>
<path d="M277.952 129.605C277.975 129.751 277.986 129.899 277.983 130.047C277.981 130.475 277.929 130.902 277.827 131.319C277.38 132.837 276.502 134.194 275.299 135.223C274.505 135.953 273.634 136.595 272.703 137.139C271.701 137.73 270.595 138.296 269.458 138.94C268.264 139.58 267.152 140.363 266.146 141.271C265.114 142.295 264.264 143.487 263.633 144.796C262.996 146.123 262.27 147.405 261.458 148.633C261.045 149.205 260.568 149.728 260.035 150.19C259.51 150.637 258.933 151.019 258.317 151.327C257.201 151.875 256.039 152.322 254.844 152.662C253.733 153.004 252.694 153.311 251.791 153.7C250.971 154.026 250.191 154.444 249.465 154.946C248.919 155.325 248.428 155.777 248.006 156.291C247.653 156.736 247.358 157.224 247.129 157.744C247.166 157.6 247.214 157.46 247.274 157.324C247.444 156.932 247.662 156.562 247.923 156.223C248.337 155.688 248.827 155.216 249.377 154.821C250.106 154.302 250.891 153.866 251.718 153.523C252.718 153.116 253.739 152.761 254.776 152.459C255.955 152.111 257.101 151.663 258.203 151.12C258.787 150.815 259.336 150.446 259.838 150.019C260.35 149.563 260.81 149.051 261.209 148.493C262.009 147.271 262.729 145.998 263.363 144.682C264.014 143.344 264.893 142.128 265.959 141.089C266.982 140.168 268.116 139.376 269.333 138.732C270.476 138.094 271.581 137.538 272.583 136.952C273.512 136.426 274.383 135.803 275.179 135.093C276.372 134.095 277.258 132.779 277.733 131.298C277.867 130.743 277.94 130.176 277.952 129.605Z" fill="#FAFAFA"/>
<path d="M246.424 142.034C246.403 142.002 246.387 141.967 246.377 141.931C246.338 141.831 246.305 141.728 246.278 141.624C246.189 141.211 246.207 140.782 246.33 140.378C246.621 139.34 247.768 138.006 249.617 137.346C250.541 137.03 251.584 136.827 252.674 136.557C253.58 136.407 254.436 136.043 255.172 135.495C255.908 134.947 256.503 134.23 256.906 133.406C257.201 132.801 257.459 132.178 257.679 131.542C258.085 130.16 258.637 128.825 259.325 127.56C260.114 126.316 261.31 125.386 262.71 124.928C263.983 124.515 265.282 124.185 266.598 123.941C267.773 123.716 268.91 123.328 269.978 122.789C270.882 122.272 271.662 121.563 272.262 120.712C273.149 119.483 273.654 118.021 273.716 116.507C273.718 115.951 273.682 115.396 273.607 114.846C273.764 115.385 273.836 115.946 273.82 116.507C273.8 118.054 273.311 119.558 272.418 120.821C271.81 121.701 271.014 122.433 270.087 122.965C269.005 123.525 267.85 123.928 266.655 124.165C265.351 124.412 264.065 124.743 262.803 125.156C261.46 125.597 260.311 126.49 259.553 127.685C258.876 128.933 258.332 130.248 257.928 131.61C257.704 132.257 257.439 132.89 257.134 133.505C256.827 134.095 256.435 134.637 255.971 135.114C255.059 135.945 253.937 136.511 252.726 136.749C251.626 137.03 250.587 137.206 249.679 137.507C247.877 138.12 246.735 139.381 246.429 140.389C246.303 140.777 246.269 141.189 246.33 141.593C246.374 141.737 246.405 141.885 246.424 142.034Z" fill="#FAFAFA"/>
<path d="M276.033 170.07C276.054 170.178 276.066 170.288 276.069 170.397C276.079 170.712 276.046 171.026 275.97 171.332C275.644 172.458 274.954 173.444 274.008 174.135C273.376 174.639 272.677 175.051 271.931 175.361C271.137 175.698 270.26 175.968 269.336 176.254C268.376 176.534 267.438 176.881 266.527 177.292C265.581 177.744 264.732 178.377 264.03 179.156C263.272 179.945 262.618 180.812 261.891 181.58C261.196 182.324 260.388 182.955 259.497 183.449C257.982 184.276 256.287 184.718 254.56 184.737C253.404 184.749 252.255 184.558 251.165 184.171C250.869 184.069 250.581 183.946 250.303 183.802C250.202 183.76 250.106 183.706 250.018 183.641C250.122 183.67 250.225 183.707 250.324 183.75C250.609 183.872 250.9 183.98 251.196 184.072C252.284 184.413 253.421 184.573 254.56 184.545C256.248 184.501 257.901 184.05 259.378 183.231C260.241 182.742 261.023 182.124 261.699 181.399C262.41 180.641 263.059 179.779 263.832 178.969C264.576 178.161 265.473 177.508 266.47 177.048C267.394 176.635 268.347 176.288 269.32 176.01C270.234 175.729 271.106 175.49 271.916 175.148C272.64 174.851 273.321 174.458 273.941 173.98C274.871 173.323 275.564 172.383 275.919 171.301C275.995 170.895 276.033 170.483 276.033 170.07Z" fill="#FAFAFA"/>
<path d="M273.483 101.259L269.154 101.363C268.987 102.236 268.656 103.07 268.178 103.819C264.543 97.5368 261.756 89.1263 261.06 85.7466C261.164 85.4091 261.283 85.0353 261.434 84.62C261.542 83.9891 261.522 83.3431 261.377 82.7198C261.252 81.967 261.044 80.9547 260.982 80.4874C260.79 79.0545 260.556 78.8313 260.058 78.9922C259.383 79.2155 260.338 83.0054 259.783 83.0884C259.482 83.13 259.118 81.8321 259.014 80.7678C258.911 79.7035 258.423 76.4223 258.075 76.2043C257.556 75.8824 257.104 76.3912 257.239 77.4503C257.374 78.5094 257.535 81.7282 256.974 81.7749C256.413 81.8217 255.936 76.3808 255.936 76.3808C255.936 76.3808 256.024 75.1971 255.37 75.2231C254.197 75.275 255.115 81.0066 255.214 81.5517C255.287 81.9255 254.695 81.9982 254.622 81.5881C254.55 81.1779 254.28 76.1524 253.065 76.1939C252.141 76.1939 253.776 80.9131 253.257 82.0034C252.738 83.0936 252.385 78.3069 251.507 78.3692C251.18 78.3952 250.936 78.4575 251.538 81.1623C252.115 83.3114 252.808 85.4276 253.615 87.5013C255.006 95.0033 261.112 119.004 270.68 114.612C276.038 112.151 278.208 101.259 278.208 101.259H273.483Z" fill="#979797"/>
<path d="M255.027 81.9148C255.068 81.9252 255.111 81.9252 255.152 81.9148C255.214 81.8957 255.268 81.8549 255.303 81.7997C255.338 81.7445 255.353 81.6785 255.344 81.6137C255.344 81.2918 255.281 80.8246 255.209 80.2172C255.087 79.4851 255.007 78.7467 254.97 78.0055C254.97 77.5694 254.97 77.1022 254.996 76.609C255.003 76.3582 255.03 76.1083 255.074 75.8614C255.115 75.6277 255.271 75.3422 255.453 75.3889H255.484C255.666 75.3889 255.811 75.5239 255.868 75.742C255.932 75.9679 255.957 76.2033 255.941 76.4376C256.048 77.8916 256.233 79.3387 256.496 80.7727C256.538 80.9648 256.579 81.162 256.642 81.3593C256.669 81.4603 256.704 81.5592 256.745 81.6552C256.772 81.7087 256.801 81.7607 256.834 81.811C256.857 81.8489 256.889 81.8809 256.927 81.9043C256.965 81.9278 257.007 81.942 257.052 81.946C257.127 81.9377 257.199 81.9071 257.257 81.8581C257.315 81.8091 257.358 81.7439 257.379 81.6708C257.423 81.5693 257.456 81.463 257.477 81.3541C257.518 81.1449 257.546 80.9334 257.56 80.7207C257.608 79.8557 257.596 78.9883 257.524 78.1249C257.458 77.6938 257.441 77.2568 257.472 76.8218C257.491 76.6339 257.582 76.4608 257.727 76.339C257.76 76.3192 257.797 76.3067 257.835 76.3022C257.874 76.2977 257.913 76.3014 257.95 76.313C257.994 76.3236 258.036 76.3411 258.074 76.3649C258.101 76.3847 258.121 76.4118 258.132 76.4428C258.295 76.8638 258.415 77.3005 258.49 77.7459C258.583 78.2028 258.661 78.6752 258.734 79.1477C258.806 79.6201 258.874 80.0978 258.931 80.5806C258.976 81.0788 259.055 81.5733 259.17 82.0602C259.231 82.3092 259.309 82.5537 259.403 82.7922C259.456 82.9257 259.53 83.0501 259.622 83.1608C259.657 83.2069 259.704 83.242 259.758 83.2622C259.812 83.2824 259.871 83.2869 259.928 83.275C259.98 83.2577 260.028 83.2271 260.065 83.1862C260.102 83.1452 260.128 83.0954 260.141 83.0414C260.202 82.7761 260.221 82.5028 260.198 82.2315C260.198 81.9719 260.167 81.7124 260.141 81.4632C260.104 81.0271 260.063 80.5961 260.047 80.1704C260.034 79.9612 260.034 79.7514 260.047 79.5422C260.058 79.4496 260.08 79.3588 260.115 79.2723C260.126 79.2437 260.141 79.2174 260.161 79.1944H260.229C260.572 79.0542 260.686 79.5319 260.779 79.916C260.873 80.3002 260.909 80.7363 260.992 81.1465C261.127 81.9616 261.304 82.7766 261.392 83.5554C261.452 83.9283 261.438 84.3094 261.35 84.6768C261.226 85.0506 261.101 85.4192 260.982 85.7878V85.8241V85.8553C261.59 88.4058 262.365 90.9136 263.302 93.3624C264.123 95.5793 264.948 97.5158 265.67 99.0733C266.391 100.631 267.046 101.851 267.492 102.671L268.011 103.6C268.067 103.711 268.135 103.816 268.214 103.912C268.17 103.797 268.116 103.685 268.053 103.58L267.534 102.63C267.108 101.794 266.495 100.553 265.789 98.9954C265.083 97.4379 264.284 95.5014 263.484 93.2846C262.569 90.8395 261.81 88.339 261.21 85.7982V85.8709C261.33 85.5075 261.449 85.1388 261.574 84.7702C261.682 84.3657 261.703 83.9428 261.636 83.5294C261.542 82.7143 261.371 81.9252 261.236 81.1049C261.158 80.7 261.106 80.2847 261.023 79.8589C261.018 79.6402 260.981 79.4234 260.914 79.2152C260.855 79.0885 260.754 78.9859 260.629 78.9244C260.495 78.8808 260.352 78.8808 260.219 78.9244H260.136C260.091 78.9385 260.051 78.9615 260.016 78.9919C259.958 79.0408 259.914 79.1033 259.886 79.1736C259.839 79.286 259.809 79.4051 259.798 79.5267C259.783 79.7514 259.783 79.9769 259.798 80.2016C259.798 80.6377 259.86 81.0738 259.897 81.5099C259.897 81.7643 259.938 82.029 259.949 82.2627C259.969 82.4968 259.957 82.7328 259.912 82.9635C259.912 83.0155 259.871 83.0051 259.912 83.031L259.881 82.9999C259.815 82.9151 259.762 82.8205 259.725 82.7195C259.635 82.495 259.56 82.2642 259.502 82.029C259.388 81.5563 259.31 81.0755 259.269 80.591C259.213 80.1029 259.146 79.6201 259.066 79.1425C258.993 78.6649 258.91 78.1976 258.817 77.7304C258.739 77.2548 258.606 76.7897 258.422 76.3442C258.387 76.2698 258.331 76.2068 258.261 76.1625C258.201 76.1274 258.136 76.0995 258.069 76.0794C257.995 76.06 257.918 76.0555 257.842 76.0662C257.767 76.0769 257.694 76.1025 257.628 76.1417C257.521 76.2217 257.432 76.3229 257.365 76.4391C257.299 76.5552 257.258 76.6837 257.244 76.8166C257.21 77.0525 257.21 77.292 257.244 77.5279C257.244 77.7511 257.296 77.9692 257.311 78.1872C257.383 79.0367 257.399 79.89 257.358 80.7415C257.346 80.9438 257.32 81.145 257.28 81.3438C257.265 81.4366 257.239 81.5272 257.202 81.6137C257.189 81.6479 257.169 81.6796 257.145 81.7072C257.145 81.7539 257.109 81.7072 257.114 81.7695C257.114 81.7175 257.114 81.7695 257.114 81.702C257.091 81.6669 257.07 81.6305 257.052 81.5929C257.015 81.5099 256.984 81.4164 256.953 81.3282C256.896 81.1413 256.854 80.9492 256.813 80.7623C256.542 79.3407 256.346 77.9058 256.226 76.4636C256.242 76.2026 256.212 75.9408 256.138 75.69C256.104 75.5592 256.034 75.4405 255.935 75.3474C255.885 75.2983 255.824 75.2601 255.758 75.2351C255.692 75.2101 255.622 75.1988 255.551 75.202H255.582C255.495 75.1892 255.405 75.2025 255.325 75.2404C255.244 75.2782 255.177 75.3389 255.131 75.4149C255.054 75.5387 255.001 75.6762 254.975 75.8198C254.931 76.0772 254.907 76.3375 254.902 76.5986C254.902 77.1177 254.902 77.5694 254.902 78.0107C254.952 78.7566 255.047 79.4987 255.188 80.2327C255.276 80.835 255.344 81.3022 255.375 81.6189C255.385 81.6744 255.375 81.7316 255.348 81.7808C255.32 81.83 255.277 81.8682 255.224 81.8889C255.068 81.9044 255.022 81.9096 255.027 81.9148Z" fill="#7D7D7D"/>
<path d="M221.213 108.409C220.2 108.387 219.188 108.504 218.207 108.757C215.523 109.463 210.897 112.266 210.705 115.729H214.069C214.069 115.729 212.185 119.737 212.735 119.363C214.173 118.398 217.028 115.495 217.028 115.495L221.213 108.409Z" fill="#979797"/>
<path d="M267.07 48.0654C266.992 48.0654 266.691 45.2931 266.39 41.8355C266.089 38.3778 265.902 35.6055 265.975 35.6055C266.047 35.6055 266.354 38.3778 266.655 41.8355C266.956 45.2931 267.143 48.0654 267.07 48.0654Z" fill="#2F2F2F"/>
<path d="M281.82 35.8168C281.877 35.8583 279.608 39.155 276.748 43.1786C273.887 47.2021 271.515 50.4469 271.452 50.3846C271.39 50.3223 273.664 47.0464 276.525 43.0228C279.385 38.9993 281.758 35.7753 281.82 35.8168Z" fill="#2F2F2F"/>
<path d="M287.945 50.7591C287.945 50.8318 285.308 51.4392 282.026 52.1141C278.745 52.7891 276.066 53.2771 276.051 53.2044C276.035 53.1317 278.683 52.5243 281.969 51.8494C285.256 51.1745 287.909 50.6864 287.945 50.7591Z" fill="#2F2F2F"/>
<path d="M111.391 122.073L93.0131 216.457L90.625 228.813L213.147 228.221C218.65 228.195 223.53 223.31 225.29 216.052L247.022 126.948C248.367 121.439 245.418 115.708 241.244 115.713L117.206 115.843C114.506 115.837 112.087 118.392 111.391 122.073Z" fill="#818181"/>
<g opacity="0.5">
<path d="M111.391 122.071L93.0131 216.455L90.625 228.811L213.147 228.219C218.65 228.193 223.53 223.308 225.29 216.05L247.022 126.946C248.367 121.437 245.418 115.706 241.244 115.711L117.206 115.841C114.506 115.836 112.087 118.39 111.391 122.071Z" fill="black"/>
</g>
<path d="M201.409 210.048L188.43 105.483C187.911 101.2 184.49 98.0021 180.456 98.0176L152.006 98.1059C150.949 98.1178 149.905 98.3449 148.938 98.7733C147.971 99.2018 147.102 99.8226 146.383 100.598L132.885 114.963L53.7648 115.389C48.9314 115.415 45.2142 119.994 45.8528 125.134L57.9025 221.776C58.4217 226.054 61.843 229.247 65.8665 229.242L203.782 228.967C219.139 229.283 220.608 224.751 220.608 224.751C202.977 228.65 201.409 210.074 201.409 210.048Z" fill="#818181"/>
<g opacity="0.5">
<path d="M141.941 189.136L137.289 194.13L101.467 161.901L106.118 156.906L141.941 189.136Z" fill="white"/>
<path d="M135.342 155.801L140.482 160.427L108.071 195.237L102.926 190.611L135.342 155.801Z" fill="white"/>
</g>
<path d="M221.104 54.183C220.936 54.1122 220.791 53.995 220.687 53.8451C220.583 53.6953 220.524 53.5189 220.517 53.3368L220.309 48.5189C220.302 48.3692 220.33 48.2198 220.39 48.0827C220.45 47.9455 220.542 47.8242 220.657 47.7285C220.773 47.6328 220.909 47.5653 221.055 47.5313C221.201 47.4972 221.352 47.4977 221.498 47.5325C221.9 47.6192 222.316 47.623 222.719 47.5435C223.123 47.4641 223.506 47.3031 223.845 47.0704C224.157 46.8728 224.425 46.6133 224.633 46.3079C224.842 46.0025 224.985 45.6578 225.054 45.2949C225.101 44.9274 225.074 44.5543 224.974 44.1976C224.874 43.8409 224.704 43.5078 224.473 43.2182C224.23 42.8887 223.924 42.6104 223.573 42.3993C223.222 42.1882 222.833 42.0483 222.427 41.9878C221.611 41.9424 220.802 42.1739 220.133 42.645C219.464 43.1161 218.974 43.7992 218.741 44.5836C218.664 44.8213 218.498 45.0199 218.277 45.1381C218.057 45.2562 217.8 45.2848 217.559 45.2179C217.318 45.151 217.112 44.9937 216.984 44.7789C216.856 44.564 216.816 44.3081 216.872 44.0645C217.226 42.8306 217.993 41.756 219.045 41.0214C220.098 40.2867 221.371 39.9368 222.651 40.0305C223.317 40.1193 223.958 40.341 224.537 40.6826C225.116 41.0242 225.62 41.4786 226.02 42.0189C226.409 42.5197 226.693 43.0934 226.857 43.706C227.02 44.3186 227.058 44.9578 226.97 45.5856C226.852 46.2125 226.607 46.8087 226.25 47.3372C225.893 47.8658 225.431 48.3157 224.893 48.6591C224.115 49.1835 223.205 49.4801 222.267 49.5157L222.427 53.2329C222.434 53.3962 222.398 53.5584 222.325 53.7045C222.251 53.8505 222.142 53.9757 222.008 54.0683C221.873 54.161 221.717 54.2182 221.555 54.2346C221.392 54.251 221.228 54.2261 221.078 54.1622L221.104 54.183Z" fill="#818181"/>
<path d="M222.524 56.1574C222.535 56.3142 222.499 56.4707 222.421 56.6071C222.343 56.7435 222.227 56.8537 222.086 56.9237C221.945 56.9938 221.787 57.0205 221.631 57.0005C221.475 56.9806 221.329 56.9148 221.21 56.8116C221.092 56.7083 221.006 56.5723 220.965 56.4206C220.924 56.2689 220.929 56.1084 220.979 55.9595C221.029 55.8105 221.122 55.6797 221.247 55.5837C221.371 55.4877 221.521 55.4308 221.678 55.4202C221.782 55.4124 221.887 55.4254 221.986 55.4583C222.085 55.4913 222.176 55.5435 222.255 55.6121C222.334 55.6807 222.398 55.7642 222.444 55.8578C222.49 55.9514 222.518 56.0532 222.524 56.1574Z" fill="#818181"/>
<path d="M204.422 47.3888C204.445 47.2861 204.46 47.1821 204.469 47.0773C204.469 46.8489 204.526 46.5582 204.568 46.148C204.619 45.6445 204.704 45.1449 204.822 44.6528C204.89 44.3621 204.926 44.0402 205.03 43.7131C205.134 43.3861 205.237 43.033 205.352 42.6748C205.953 40.8999 206.829 39.2304 207.947 37.7272C209.414 35.7806 211.273 34.164 213.404 32.982C214.617 32.2981 215.909 31.7646 217.251 31.3933C218.699 31.0094 220.191 30.814 221.69 30.8119C222.479 30.7992 223.268 30.8408 224.052 30.9365C224.452 30.978 224.846 31.0818 225.246 31.1493C225.65 31.2186 226.049 31.3157 226.44 31.4401C228.076 31.8974 229.633 32.603 231.055 33.5323C234.218 35.5837 236.627 38.6088 237.919 42.1505C238.614 44.0476 238.966 46.0536 238.957 48.0741C238.978 50.1557 238.61 52.2229 237.872 54.1691L237.638 54.761L237.607 54.8389L237.638 54.9167C238.941 57.9123 240.234 60.856 241.454 63.7062L241.672 63.457L233.885 60.4718L233.791 60.4355L233.713 60.5081C231.653 62.5042 229.131 63.9596 226.372 64.7445C224.015 65.3936 221.547 65.5352 219.13 65.1603C216.714 64.7853 214.405 63.9022 212.355 62.5692C210.676 61.4682 209.196 60.0901 207.979 58.4938C206.214 56.1637 205.07 53.4232 204.656 50.5298C204.594 50.0106 204.542 49.5745 204.495 49.18C204.448 48.7854 204.495 48.4635 204.469 48.1884C204.443 47.9132 204.469 47.7315 204.469 47.5809C204.495 47.577 204.518 47.5634 204.535 47.5429C204.551 47.5225 204.559 47.4966 204.557 47.4705C204.555 47.4443 204.543 47.4199 204.524 47.4021C204.505 47.3843 204.48 47.3744 204.453 47.3744C204.427 47.3744 204.402 47.3843 204.383 47.4021C204.364 47.4199 204.352 47.4443 204.35 47.4705C204.348 47.4966 204.356 47.5225 204.372 47.5429C204.389 47.5634 204.412 47.577 204.438 47.5809C204.438 47.7315 204.438 47.934 204.438 48.1884C204.438 48.4427 204.438 48.7958 204.438 49.1903C204.438 49.5849 204.526 50.0366 204.578 50.5506C204.749 51.7993 205.046 53.0274 205.466 54.2159C206.06 55.7854 206.86 57.2692 207.844 58.6288C209.066 60.2536 210.557 61.6581 212.251 62.7821C214.326 64.1484 216.668 65.0577 219.122 65.4497C221.575 65.8418 224.084 65.7076 226.481 65.056C229.274 64.263 231.827 62.7937 233.916 60.7781L233.745 60.8145L241.532 63.8152L241.921 63.9658L241.75 63.566C240.514 60.7158 239.237 57.7773 237.939 54.7766V54.9271L238.178 54.3197C238.936 52.331 239.313 50.2176 239.289 48.0897C239.305 46.0262 238.954 43.9763 238.251 42.0362C236.932 38.424 234.469 35.3413 231.237 33.2572C229.779 32.3062 228.181 31.588 226.502 31.1286C226.105 31.0029 225.699 30.9074 225.287 30.843C224.882 30.7703 224.483 30.6665 224.078 30.6302C223.284 30.5316 222.484 30.4865 221.684 30.4952C220.162 30.5016 218.647 30.7076 217.178 31.1078C215.818 31.494 214.509 32.0413 213.279 32.738C211.127 33.949 209.256 35.6036 207.792 37.5922C206.676 39.1203 205.812 40.8169 205.232 42.6177C205.123 42.9915 205.019 43.3497 204.926 43.656C204.843 43.969 204.777 44.2861 204.729 44.6061C204.617 45.1016 204.544 45.605 204.511 46.1117C204.479 46.5114 204.459 46.8178 204.443 47.0462C204.421 47.159 204.414 47.2742 204.422 47.3888Z" fill="#2F2F2F"/>
</g>
</svg>
