<svg width="34" height="35" viewBox="0 0 34 35" fill="none" xmlns="http://www.w3.org/2000/svg">
<path d="M10.1282 26.5592H23.6334M15.2225 2.52675L3.773 11.4319C3.00765 12.0272 2.62498 12.3248 2.34928 12.6976C2.10508 13.0278 1.92315 13.3997 1.81245 13.7952C1.68749 14.2417 1.68749 14.7265 1.68749 15.6961V27.9097C1.68749 29.8006 1.68749 30.746 2.05548 31.4683C2.37918 32.1035 2.89568 32.6201 3.53097 32.9438C4.2532 33.3117 5.19865 33.3117 7.08955 33.3117H26.672C28.5629 33.3117 29.5084 33.3117 30.2306 32.9438C30.8659 32.6201 31.3824 32.1035 31.7061 31.4683C32.0741 30.746 32.0741 29.8006 32.0741 27.9097V15.6961C32.0741 14.7265 32.0741 14.2417 31.9491 13.7952C31.8384 13.3997 31.6565 13.0278 31.4123 12.6976C31.1366 12.3248 30.7539 12.0272 29.9886 11.4319L18.5391 2.52675C17.946 2.06546 17.6494 1.83482 17.322 1.74616C17.0331 1.66793 16.7285 1.66793 16.4396 1.74616C16.1122 1.83482 15.8156 2.06546 15.2225 2.52675Z" stroke="#667085" stroke-width="1.66667" stroke-linecap="round" stroke-linejoin="round"/>
</svg>
