<svg width="17" height="17" viewBox="0 0 17 17" fill="none" xmlns="http://www.w3.org/2000/svg">
<path d="M9.63346 2.18555V4.93924C9.63346 5.31261 9.63346 5.49929 9.70613 5.6419C9.77004 5.76734 9.87203 5.86933 9.99747 5.93324C10.1401 6.00591 10.3268 6.00591 10.7001 6.00591H13.4538M13.6335 7.33134V12.1392C13.6335 13.2593 13.6335 13.8194 13.4155 14.2472C13.2237 14.6235 12.9178 14.9295 12.5414 15.1212C12.1136 15.3392 11.5536 15.3392 10.4335 15.3392H6.1668C5.04669 15.3392 4.48664 15.3392 4.05882 15.1212C3.68249 14.9295 3.37653 14.6235 3.18478 14.2472C2.9668 13.8194 2.9668 13.2593 2.9668 12.1392V5.20586C2.9668 4.08575 2.9668 3.5257 3.18478 3.09788C3.37653 2.72155 3.68249 2.41559 4.05882 2.22385C4.48664 2.00586 5.04669 2.00586 6.1668 2.00586H8.30798C8.79716 2.00586 9.04175 2.00586 9.27193 2.06112C9.476 2.11011 9.67109 2.19092 9.85003 2.30058C10.0519 2.42426 10.2248 2.59721 10.5707 2.94312L12.6962 5.0686C13.0421 5.4145 13.2151 5.58746 13.3387 5.78929C13.4484 5.96823 13.5292 6.16332 13.5782 6.3674C13.6335 6.59757 13.6335 6.84216 13.6335 7.33134Z" stroke="#0F72F3" stroke-linecap="round" stroke-linejoin="round"/>
</svg>
