<svg width="22" height="20" viewBox="0 0 22 20" fill="none" xmlns="http://www.w3.org/2000/svg">
<path d="M2.38589 3.81531C1.62955 2.96999 1.25138 2.54733 1.23712 2.18812C1.22473 1.87607 1.35882 1.57616 1.59963 1.37732C1.87684 1.14844 2.44399 1.14844 3.57828 1.14844H18.4212C19.5555 1.14844 20.1227 1.14844 20.3999 1.37732C20.6407 1.57616 20.7748 1.87607 20.7624 2.18812C20.7481 2.54733 20.3699 2.96999 19.6136 3.81531L13.9074 10.1929C13.7566 10.3614 13.6812 10.4456 13.6275 10.5415C13.5798 10.6266 13.5448 10.7181 13.5236 10.8133C13.4997 10.9206 13.4997 11.0336 13.4997 11.2597V16.6068C13.4997 16.8024 13.4997 16.9002 13.4682 16.9847C13.4403 17.0594 13.395 17.1263 13.336 17.18C13.2692 17.2406 13.1784 17.277 12.9969 17.3496L9.59686 18.7096C9.22931 18.8566 9.04554 18.9301 8.89802 18.8995C8.76901 18.8727 8.6558 18.796 8.583 18.6862C8.49975 18.5606 8.49975 18.3627 8.49975 17.9668V11.2597C8.49975 11.0336 8.49975 10.9206 8.47587 10.8133C8.45469 10.7181 8.41971 10.6266 8.37204 10.5415C8.31828 10.4456 8.2429 10.3614 8.09213 10.1929L2.38589 3.81531Z" stroke="#667085" stroke-width="2" stroke-linecap="round" stroke-linejoin="round"/>
</svg>
