<svg width="20" height="19" viewBox="0 0 20 19" fill="none" xmlns="http://www.w3.org/2000/svg">
<path d="M15.7297 3.41406C13.9778 3.41406 12.5313 4.74617 12.3496 6.45064C13.6211 7.23945 14.4697 8.6479 14.4697 10.2511V12.5428C14.4697 13.3788 14.093 14.1473 13.476 14.6593V17.7371C13.476 18.0325 13.7155 18.272 14.0109 18.272H17.4484C17.7438 18.272 17.9833 18.0325 17.9833 17.7371V12.4175C18.6487 12.1935 19.1292 11.5638 19.1292 10.824V6.81354C19.1292 4.93909 17.6041 3.41406 15.7297 3.41406Z" fill="#475467"/>
<path d="M15.7291 3.4138C16.6663 3.4138 17.4288 2.6513 17.4288 1.71404C17.3434 -0.53782 14.1144 -0.537178 14.0293 1.71408C14.0293 2.6513 14.7918 3.4138 15.7291 3.4138Z" fill="#475467"/>
<path d="M11.6999 5.15093C11.6999 4.21367 10.9374 3.45117 10.0002 3.45117C7.74833 3.53661 7.74893 6.76556 10.0002 6.85068C10.9374 6.85068 11.6999 6.08819 11.6999 5.15093Z" fill="#475467"/>
<path d="M10.0002 6.85156C8.2483 6.85156 6.80184 8.18367 6.62012 9.88814C7.89161 10.6769 8.74026 12.0854 8.74026 13.6886V14.2615C8.74026 15.0974 8.36352 15.866 7.74655 16.378V17.7371C7.74655 18.0325 7.98603 18.2719 8.28143 18.2719H11.719C12.0144 18.2719 12.2538 18.0325 12.2538 17.7371V14.1362C12.9192 13.9123 13.3997 13.2826 13.3997 12.5427V10.251C13.3997 8.37655 11.8747 6.85156 10.0002 6.85156Z" fill="#475467"/>
<path d="M4.27057 10.2891C2.3897 10.2891 0.871094 11.8115 0.871094 13.6885V14.2614C0.871094 15.0013 1.35156 15.631 2.01692 15.8549V17.737C2.01692 18.0324 2.25641 18.2719 2.55181 18.2719H5.98933C6.28473 18.2719 6.52421 18.0324 6.52421 17.737V15.8549C7.18957 15.631 7.67004 15.0013 7.67004 14.2614V13.6885C7.67008 11.808 6.14808 10.2891 4.27057 10.2891Z" fill="#475467"/>
<path d="M4.27104 10.2888C5.20827 10.2888 5.9708 9.5263 5.9708 8.58904C5.88536 6.33718 2.65641 6.33782 2.57129 8.58908C2.57132 9.5263 3.33382 10.2888 4.27104 10.2888Z" fill="#475467"/>
</svg>
