<svg width="18" height="18" viewBox="0 0 18 18" fill="none" xmlns="http://www.w3.org/2000/svg">
<path d="M5.66667 13.3147H12.3333M8.18141 1.4514L2.52949 5.84734C2.15168 6.14119 1.96278 6.28812 1.82669 6.47212C1.70614 6.63511 1.61633 6.81872 1.56169 7.01395C1.5 7.23434 1.5 7.47365 1.5 7.95228V13.9814C1.5 14.9148 1.5 15.3815 1.68166 15.738C1.84144 16.0516 2.09641 16.3066 2.41002 16.4664C2.76654 16.6481 3.23325 16.6481 4.16667 16.6481H13.8333C14.7668 16.6481 15.2335 16.6481 15.59 16.4664C15.9036 16.3066 16.1586 16.0516 16.3183 15.738C16.5 15.3815 16.5 14.9148 16.5 13.9814V7.95228C16.5 7.47365 16.5 7.23434 16.4383 7.01395C16.3837 6.81872 16.2939 6.63511 16.1733 6.47212C16.0372 6.28812 15.8483 6.14119 15.4705 5.84734L9.81859 1.4514C9.52582 1.22369 9.37943 1.10984 9.21779 1.06607C9.07516 1.02746 8.92484 1.02746 8.78221 1.06607C8.62057 1.10984 8.47418 1.22369 8.18141 1.4514Z" stroke="#667085" stroke-width="1.66667" stroke-linecap="round" stroke-linejoin="round"/>
</svg>
