<svg width="18" height="18" viewBox="0 0 18 18" fill="none" xmlns="http://www.w3.org/2000/svg">
<path fill-rule="evenodd" clip-rule="evenodd" d="M8.58366 0.814453C4.2114 0.814453 0.666992 4.35887 0.666992 8.73112C0.666992 13.1034 4.2114 16.6478 8.58366 16.6478C10.4696 16.6478 12.2015 15.9883 13.5614 14.8874L15.9111 17.237C16.2365 17.5625 16.7641 17.5625 17.0896 17.237C17.415 16.9116 17.415 16.384 17.0896 16.0585L14.7399 13.7089C15.8409 12.349 16.5003 10.6171 16.5003 8.73112C16.5003 4.35887 12.9559 0.814453 8.58366 0.814453ZM2.33366 8.73112C2.33366 5.27934 5.13188 2.48112 8.58366 2.48112C12.0354 2.48112 14.8337 5.27934 14.8337 8.73112C14.8337 12.1829 12.0354 14.9811 8.58366 14.9811C5.13188 14.9811 2.33366 12.1829 2.33366 8.73112Z" fill="#667085"/>
</svg>
