<svg width="18" height="19" viewBox="0 0 18 19" fill="none" xmlns="http://www.w3.org/2000/svg">
<path fill-rule="evenodd" clip-rule="evenodd" d="M9 17.6C13.4735 17.6 17.1 13.9736 17.1 9.5C17.1 5.0265 13.4736 1.39998 9 1.39998C4.5265 1.39998 0.899981 5.0265 0.899981 9.5C0.899981 13.9735 4.5265 17.6 9 17.6ZM9 18.5C13.9705 18.5 18 14.4705 18 9.5C18 4.5294 13.9705 0.5 9 0.5C4.0294 0.5 0 4.5294 0 9.5C0 14.4705 4.0294 18.5 9 18.5Z" fill="#667085"/>
<path fill-rule="evenodd" clip-rule="evenodd" d="M11.3396 9.50013L7.20086 6.74102V12.2593L11.3396 9.50013ZM12.1757 8.97597C12.5498 9.22537 12.5498 9.77499 12.1757 10.0244L7.28026 13.2881C6.86161 13.5672 6.30078 13.267 6.30078 12.7638V6.23651C6.30078 5.73334 6.86161 5.43322 7.28026 5.71235L12.1757 8.97597Z" fill="#667085"/>
</svg>
